<svg width="97" height="97" viewBox="0 0 97 97" fill="none" xmlns="http://www.w3.org/2000/svg">
<rect x="1.455" y="1.455" width="94.09" height="94.09" stroke="#2E4B5B" stroke-width="2.91"/>
<path d="M48.3816 55.6992C47.9869 59.3304 46.6844 62.1091 44.4741 64.0352C42.2796 65.9613 39.351 66.9243 35.6882 66.9243C33.1306 66.9243 30.8651 66.2849 28.8916 65.0061C26.9339 63.7273 25.4183 61.9196 24.3447 59.583C23.2712 57.2306 22.7265 54.5467 22.7107 51.5313V47.0554C22.7107 43.9926 23.2475 41.2771 24.321 38.9089C25.3946 36.5408 26.9339 34.7173 28.939 33.4385C30.9598 32.1439 33.2806 31.4966 35.9014 31.4966C39.5957 31.4966 42.5085 32.4991 44.6399 34.5042C46.787 36.4934 48.0343 39.2484 48.3816 42.769H45.4451C44.7188 36.9118 41.5376 33.9832 35.9014 33.9832C32.7754 33.9832 30.2809 35.1514 28.418 37.488C26.5708 39.8246 25.6472 43.0532 25.6472 47.1738V51.3892C25.6472 55.3677 26.5471 58.541 28.3469 60.9092C30.1625 63.2773 32.6096 64.4614 35.6882 64.4614C38.7353 64.4614 41.0324 63.7352 42.5796 62.2827C44.1268 60.8145 45.0819 58.62 45.4451 55.6992H48.3816Z" fill="#2E4B5B"/>
<path d="M53.6626 53.4021C53.6626 49.4236 54.5467 46.2581 56.3149 43.9058C58.099 41.5376 60.5145 40.3535 63.5615 40.3535C67.019 40.3535 69.6556 41.7192 71.4712 44.4504V30.0757H74.2893V66.4507H71.637L71.5186 63.0405C69.703 65.6297 67.0348 66.9243 63.5142 66.9243C60.5618 66.9243 58.1779 65.7402 56.3623 63.3721C54.5625 60.9881 53.6626 57.7753 53.6626 53.7336V53.4021ZM56.5281 53.8994C56.5281 57.1675 57.1833 59.7488 58.4936 61.6433C59.804 63.5221 61.6512 64.4614 64.0352 64.4614C67.5242 64.4614 70.0029 62.9221 71.4712 59.8435V47.8132C70.0029 44.482 67.54 42.8164 64.0825 42.8164C61.6986 42.8164 59.8435 43.7558 58.5173 45.6345C57.1912 47.4975 56.5281 50.2524 56.5281 53.8994Z" fill="#2E4B5B"/>
</svg>
