<svg width="100" height="100" viewBox="0 0 100 100" fill="none" xmlns="http://www.w3.org/2000/svg">
<rect x="4.455" y="4.38615" width="94.09" height="94.09" stroke="#C7D6DB" stroke-width="2.91"/>
<path d="M51.3816 58.6304C50.9869 62.2616 49.6844 65.0402 47.4741 66.9663C45.2796 68.8924 42.351 69.8555 38.6882 69.8555C36.1306 69.8555 33.8651 69.2161 31.8916 67.9373C29.9339 66.6584 28.4183 64.8507 27.3447 62.5142C26.2712 60.1618 25.7265 57.4779 25.7107 54.4624V49.9866C25.7107 46.9237 26.2475 44.2083 27.321 41.8401C28.3946 39.4719 29.9339 37.6484 31.939 36.3696C33.9598 35.075 36.2806 34.4277 38.9014 34.4277C42.5957 34.4277 45.5085 35.4303 47.6399 37.4353C49.787 39.4246 51.0343 42.1795 51.3816 45.7002H48.4451C47.7188 39.8429 44.5376 36.9143 38.9014 36.9143C35.7754 36.9143 33.2809 38.0826 31.418 40.4192C29.5708 42.7558 28.6472 45.9844 28.6472 50.105V54.3203C28.6472 58.2988 29.5471 61.4722 31.3469 63.8403C33.1625 66.2085 35.6096 67.3926 38.6882 67.3926C41.7353 67.3926 44.0324 66.6663 45.5796 65.2139C47.1268 63.7456 48.0819 61.5511 48.4451 58.6304H51.3816Z" fill="#C7D6DB"/>
<path d="M56.6626 56.3333C56.6626 52.3547 57.5467 49.1893 59.3149 46.8369C61.099 44.4688 63.5145 43.2847 66.5615 43.2847C70.019 43.2847 72.6556 44.6503 74.4712 47.3816V33.0068H77.2893V69.3818H74.637L74.5186 65.9717C72.703 68.5609 70.0348 69.8555 66.5142 69.8555C63.5618 69.8555 61.1779 68.6714 59.3623 66.3032C57.5625 63.9193 56.6626 60.7065 56.6626 56.6648V56.3333ZM59.5281 56.8306C59.5281 60.0986 60.1833 62.6799 61.4936 64.5745C62.804 66.4532 64.6512 67.3926 67.0352 67.3926C70.5242 67.3926 73.0029 65.8533 74.4712 62.7747V50.7444C73.0029 47.4132 70.54 45.7476 67.0825 45.7476C64.6986 45.7476 62.8435 46.6869 61.5173 48.5657C60.1912 50.4286 59.5281 53.1836 59.5281 56.8306Z" fill="#C7D6DB"/>
<rect x="1.455" y="1.455" width="94.09" height="94.09" stroke="#2E4B5B" stroke-width="2.91"/>
<path d="M48.3816 55.6992C47.9869 59.3304 46.6844 62.1091 44.4741 64.0352C42.2796 65.9613 39.351 66.9243 35.6882 66.9243C33.1306 66.9243 30.8651 66.2849 28.8916 65.0061C26.9339 63.7273 25.4183 61.9196 24.3447 59.583C23.2712 57.2306 22.7265 54.5467 22.7107 51.5313V47.0554C22.7107 43.9926 23.2475 41.2771 24.321 38.9089C25.3946 36.5408 26.9339 34.7173 28.939 33.4385C30.9598 32.1439 33.2806 31.4966 35.9014 31.4966C39.5957 31.4966 42.5085 32.4991 44.6399 34.5042C46.787 36.4934 48.0343 39.2484 48.3816 42.769H45.4451C44.7188 36.9118 41.5376 33.9832 35.9014 33.9832C32.7754 33.9832 30.2809 35.1514 28.418 37.488C26.5708 39.8246 25.6472 43.0532 25.6472 47.1738V51.3892C25.6472 55.3677 26.5471 58.541 28.3469 60.9092C30.1625 63.2773 32.6096 64.4614 35.6882 64.4614C38.7353 64.4614 41.0324 63.7352 42.5796 62.2827C44.1268 60.8145 45.0819 58.62 45.4451 55.6992H48.3816Z" fill="#2E4B5B"/>
<path d="M53.6626 53.4021C53.6626 49.4236 54.5467 46.2581 56.3149 43.9058C58.099 41.5376 60.5145 40.3535 63.5615 40.3535C67.019 40.3535 69.6556 41.7192 71.4712 44.4504V30.0757H74.2893V66.4507H71.637L71.5186 63.0405C69.703 65.6297 67.0348 66.9243 63.5142 66.9243C60.5618 66.9243 58.1779 65.7402 56.3623 63.3721C54.5625 60.9881 53.6626 57.7753 53.6626 53.7336V53.4021ZM56.5281 53.8994C56.5281 57.1675 57.1833 59.7488 58.4936 61.6433C59.804 63.5221 61.6512 64.4614 64.0352 64.4614C67.5242 64.4614 70.0029 62.9221 71.4712 59.8435V47.8132C70.0029 44.482 67.54 42.8164 64.0825 42.8164C61.6986 42.8164 59.8435 43.7558 58.5173 45.6345C57.1912 47.4975 56.5281 50.2524 56.5281 53.8994Z" fill="#2E4B5B"/>
</svg>
