<svg width="240" height="240" viewBox="0 0 240 240" fill="none" xmlns="http://www.w3.org/2000/svg">
<path fill-rule="evenodd" clip-rule="evenodd" d="M42.4757 97.0369C40.6347 97.0369 39.1424 98.5292 39.1424 100.37V131.222C39.1424 133.063 40.6347 134.556 42.4757 134.556H58.3585L62.8262 140.653L67.2939 134.556H82.7077C84.5486 134.556 86.041 133.063 86.041 131.222V100.37C86.041 98.5292 84.5487 97.0369 82.7077 97.0369H42.4757Z" fill="white"/>
<path d="M58.3585 134.556L59.2548 133.899L58.9218 133.445H58.3585V134.556ZM62.8262 140.653L61.93 141.309L62.8262 142.532L63.7224 141.309L62.8262 140.653ZM67.2939 134.556V133.445H66.7306L66.3977 133.899L67.2939 134.556ZM40.2535 100.37C40.2535 99.1429 41.2484 98.148 42.4757 98.148V95.9258C40.0211 95.9258 38.0313 97.9156 38.0313 100.37H40.2535ZM40.2535 131.222V100.37H38.0313V131.222H40.2535ZM42.4757 133.445C41.2484 133.445 40.2535 132.45 40.2535 131.222H38.0313C38.0313 133.677 40.0211 135.667 42.4757 135.667V133.445ZM58.3585 133.445H42.4757V135.667H58.3585V133.445ZM63.7224 139.996L59.2548 133.899L57.4623 135.213L61.93 141.309L63.7224 139.996ZM66.3977 133.899L61.93 139.996L63.7224 141.309L68.1901 135.213L66.3977 133.899ZM82.7077 133.445H67.2939V135.667H82.7077V133.445ZM84.9299 131.222C84.9299 132.45 83.935 133.445 82.7077 133.445V135.667C85.1623 135.667 87.1521 133.677 87.1521 131.222H84.9299ZM84.9299 100.37V131.222H87.1521V100.37H84.9299ZM82.7077 98.148C83.935 98.148 84.9299 99.1429 84.9299 100.37H87.1521C87.1521 97.9156 85.1623 95.9258 82.7077 95.9258V98.148ZM42.4757 98.148H82.7077V95.9258H42.4757V98.148Z" fill="black"/>
<path d="M75.7234 112.715C75.7234 119.856 62.8262 126.349 62.8262 126.349C62.8262 126.349 49.9291 119.856 49.9291 112.715C49.9291 105.574 60.6337 103.147 62.8262 112.715C64.5029 103.147 75.7234 105.574 75.7234 112.715Z" fill="white" stroke="black" stroke-width="2.22222"/>
<path fill-rule="evenodd" clip-rule="evenodd" d="M51.8384 71.7379C50.0068 71.924 48.6729 73.5596 48.859 75.3911L51.9775 106.085C52.1636 107.917 53.7991 109.251 55.6307 109.065L71.4322 107.459L76.4932 113.073L80.3217 106.556L95.6566 104.998C97.4881 104.812 98.822 103.176 98.636 101.345L95.5175 70.6507C95.3314 68.8192 93.6958 67.4853 91.8643 67.6714L51.8384 71.7379Z" fill="white"/>
<path d="M71.4322 107.459L72.2574 106.715L71.8803 106.297L71.3199 106.354L71.4322 107.459ZM76.4932 113.073L75.6679 113.817L76.6832 114.943L77.4512 113.636L76.4932 113.073ZM80.3217 106.556L80.2094 105.451L79.649 105.508L79.3637 105.993L80.3217 106.556ZM49.9644 75.2788C49.8404 74.0578 50.7297 72.9674 51.9507 72.8433L51.726 70.6325C49.284 70.8806 47.5055 73.0614 47.7536 75.5034L49.9644 75.2788ZM53.0829 105.973L49.9644 75.2788L47.7536 75.5034L50.8721 106.198L53.0829 105.973ZM55.5184 107.959C54.2973 108.083 53.2069 107.194 53.0829 105.973L50.8721 106.198C51.1202 108.64 53.3009 110.418 55.743 110.17L55.5184 107.959ZM71.3199 106.354L55.5184 107.959L55.743 110.17L71.5445 108.565L71.3199 106.354ZM77.3185 112.329L72.2574 106.715L70.6069 108.203L75.6679 113.817L77.3185 112.329ZM79.3637 105.993L75.5352 112.51L77.4512 113.636L81.2797 107.119L79.3637 105.993ZM95.5443 103.893L80.2094 105.451L80.434 107.662L95.7689 106.104L95.5443 103.893ZM97.5305 101.457C97.6546 102.678 96.7653 103.769 95.5443 103.893L95.7689 106.104C98.211 105.855 99.9895 103.675 99.7414 101.233L97.5305 101.457ZM94.4121 70.763L97.5305 101.457L99.7414 101.233L96.6229 70.5384L94.4121 70.763ZM91.9766 68.7768C93.1976 68.6527 94.288 69.542 94.4121 70.763L96.6229 70.5384C96.3748 68.0964 94.194 66.3178 91.752 66.566L91.9766 68.7768ZM51.9507 72.8433L91.9766 68.7768L91.752 66.566L51.726 70.6325L51.9507 72.8433Z" fill="black"/>
<path d="M86.5004 83.9753C87.2222 91.0797 75.0473 98.8424 75.0473 98.8424C75.0473 98.8424 61.56 93.6869 60.8382 86.5825C60.1164 79.4781 70.5209 75.9814 73.6693 85.2789C74.3702 75.5904 85.7786 76.8709 86.5004 83.9753Z" fill="white" stroke="black" stroke-width="2.22222"/>
<path fill-rule="evenodd" clip-rule="evenodd" d="M90.9205 77.2095C89.089 77.3955 87.7551 79.0311 87.9412 80.8626L91.0597 111.557C91.2457 113.388 92.8813 114.722 94.7128 114.536L110.514 112.931L115.575 118.545L119.404 112.028L134.739 110.47C136.57 110.284 137.904 108.648 137.718 106.817L134.6 76.1223C134.414 74.2907 132.778 72.9569 130.947 73.1429L90.9205 77.2095Z" fill="white"/>
<path d="M87.9412 80.8626L89.0466 80.7503L87.9412 80.8626ZM91.0597 111.557L89.9542 111.669L91.0597 111.557ZM110.514 112.931L111.34 112.187L110.962 111.769L110.402 111.825L110.514 112.931ZM115.575 118.545L114.75 119.289L115.765 120.415L116.533 119.108L115.575 118.545ZM119.404 112.028L119.292 110.922L118.731 110.979L118.446 111.465L119.404 112.028ZM134.739 110.47L134.851 111.575L134.739 110.47ZM137.718 106.817L136.613 106.929L137.718 106.817ZM134.6 76.1223L135.705 76.01L134.6 76.1223ZM89.0466 80.7503C88.9226 79.5293 89.8118 78.4389 91.0328 78.3149L90.8082 76.104C88.3662 76.3521 86.5877 78.5329 86.8358 80.975L89.0466 80.7503ZM92.1651 111.445L89.0466 80.7503L86.8358 80.975L89.9542 111.669L92.1651 111.445ZM94.6005 113.431C93.3795 113.555 92.2891 112.666 92.1651 111.445L89.9542 111.669C90.2023 114.111 92.3831 115.89 94.8252 115.642L94.6005 113.431ZM110.402 111.825L94.6005 113.431L94.8252 115.642L110.627 114.036L110.402 111.825ZM116.401 117.801L111.34 112.187L109.689 113.675L114.75 119.289L116.401 117.801ZM118.446 111.465L114.617 117.982L116.533 119.108L120.362 112.59L118.446 111.465ZM134.626 109.364L119.292 110.922L119.516 113.133L134.851 111.575L134.626 109.364ZM136.613 106.929C136.737 108.15 135.848 109.24 134.626 109.364L134.851 111.575C137.293 111.327 139.072 109.146 138.824 106.704L136.613 106.929ZM133.494 76.2346L136.613 106.929L138.824 106.704L135.705 76.01L133.494 76.2346ZM131.059 74.2484C132.28 74.1243 133.37 75.0136 133.494 76.2346L135.705 76.01C135.457 73.5679 133.276 71.7894 130.834 72.0375L131.059 74.2484ZM91.0328 78.3149L131.059 74.2484L130.834 72.0375L90.8082 76.104L91.0328 78.3149Z" fill="black"/>
<path d="M125.583 89.447C126.304 96.5514 114.13 104.314 114.13 104.314C114.13 104.314 100.642 99.1586 99.9205 92.0542C99.1987 84.9498 109.603 81.4531 112.752 90.7506C113.452 81.062 124.861 82.3426 125.583 89.447Z" fill="white" stroke="black" stroke-width="2.22222"/>
<path fill-rule="evenodd" clip-rule="evenodd" d="M135.474 71.7379C133.643 71.924 132.309 73.5596 132.495 75.3911L135.613 106.085C135.799 107.917 137.435 109.251 139.267 109.065L155.068 107.459L160.129 113.073L163.958 106.556L179.293 104.998C181.124 104.812 182.458 103.176 182.272 101.345L179.153 70.6507C178.967 68.8192 177.332 67.4853 175.5 67.6714L135.474 71.7379Z" fill="white"/>
<path d="M139.267 109.065L139.379 110.17L139.267 109.065ZM155.068 107.459L155.893 106.715L155.516 106.297L154.956 106.354L155.068 107.459ZM160.129 113.073L159.304 113.817L160.319 114.943L161.087 113.636L160.129 113.073ZM163.958 106.556L163.845 105.451L163.285 105.508L163 105.993L163.958 106.556ZM182.272 101.345L183.377 101.233L182.272 101.345ZM179.153 70.6507L178.048 70.763L179.153 70.6507ZM133.6 75.2788C133.476 74.0578 134.366 72.9674 135.587 72.8433L135.362 70.6325C132.92 70.8806 131.141 73.0614 131.39 75.5034L133.6 75.2788ZM136.719 105.973L133.6 75.2788L131.39 75.5034L134.508 106.198L136.719 105.973ZM139.154 107.959C137.933 108.083 136.843 107.194 136.719 105.973L134.508 106.198C134.756 108.64 136.937 110.418 139.379 110.17L139.154 107.959ZM154.956 106.354L139.154 107.959L139.379 110.17L155.18 108.565L154.956 106.354ZM160.954 112.329L155.893 106.715L154.243 108.203L159.304 113.817L160.954 112.329ZM163 105.993L159.171 112.51L161.087 113.636L164.916 107.119L163 105.993ZM179.18 103.893L163.845 105.451L164.07 107.662L179.405 106.104L179.18 103.893ZM181.166 101.457C181.291 102.678 180.401 103.769 179.18 103.893L179.405 106.104C181.847 105.855 183.625 103.675 183.377 101.233L181.166 101.457ZM178.048 70.763L181.166 101.457L183.377 101.233L180.259 70.5384L178.048 70.763ZM175.613 68.7768C176.834 68.6527 177.924 69.542 178.048 70.763L180.259 70.5384C180.011 68.0964 177.83 66.3178 175.388 66.566L175.613 68.7768ZM135.587 72.8433L175.613 68.7768L175.388 66.566L135.362 70.6325L135.587 72.8433Z" fill="black"/>
<path d="M170.136 83.9753C170.858 91.0797 158.683 98.8424 158.683 98.8424C158.683 98.8424 145.196 93.6869 144.474 86.5825C143.752 79.4781 154.157 75.9814 157.305 85.2789C158.006 75.5904 169.415 76.8709 170.136 83.9753Z" fill="white" stroke="black" stroke-width="2.22222"/>
<path fill-rule="evenodd" clip-rule="evenodd" d="M83.8784 103.087C82.0509 103.309 80.75 104.971 80.9726 106.799L84.7033 137.424C84.9259 139.252 86.5878 140.553 88.4152 140.33L104.181 138.41L109.354 143.922L113.051 137.329L128.352 135.465C130.179 135.243 131.48 133.581 131.258 131.753L127.527 101.128C127.304 99.3001 125.643 97.9991 123.815 98.2217L83.8784 103.087Z" fill="white"/>
<path d="M104.181 138.41L104.992 137.649L104.606 137.239L104.047 137.307L104.181 138.41ZM109.354 143.922L108.543 144.682L109.581 145.788L110.323 144.465L109.354 143.922ZM113.051 137.329L112.917 136.226L112.358 136.294L112.082 136.786L113.051 137.329ZM82.0755 106.664C81.9271 105.446 82.7944 104.338 84.0127 104.19L83.744 101.984C81.3074 102.281 79.5728 104.496 79.8696 106.933L82.0755 106.664ZM85.8062 137.29L82.0755 106.664L79.8696 106.933L83.6003 137.559L85.8062 137.29ZM88.2809 139.227C87.0626 139.376 85.9547 138.508 85.8062 137.29L83.6003 137.559C83.8971 139.995 86.113 141.73 88.5496 141.433L88.2809 139.227ZM104.047 137.307L88.2809 139.227L88.5496 141.433L104.316 139.513L104.047 137.307ZM110.164 143.161L104.992 137.649L103.371 139.17L108.543 144.682L110.164 143.161ZM112.082 136.786L108.385 143.378L110.323 144.465L114.02 137.873L112.082 136.786ZM128.218 134.362L112.917 136.226L113.186 138.432L128.486 136.568L128.218 134.362ZM130.155 131.888C130.303 133.106 129.436 134.214 128.218 134.362L128.486 136.568C130.923 136.271 132.658 134.056 132.361 131.619L130.155 131.888ZM126.424 101.262L130.155 131.888L132.361 131.619L128.63 100.993L126.424 101.262ZM123.95 99.3247C125.168 99.1763 126.276 100.044 126.424 101.262L128.63 100.993C128.333 98.5566 126.117 96.822 123.681 97.1188L123.95 99.3247ZM84.0127 104.19L123.95 99.3247L123.681 97.1188L83.744 101.984L84.0127 104.19Z" fill="black"/>
<path d="M118.778 114.63C119.641 121.718 107.624 129.722 107.624 129.722C107.624 129.722 94.0364 124.837 93.1729 117.749C92.3094 110.66 102.642 106.956 105.975 116.189C106.483 106.489 117.914 107.541 118.778 114.63Z" fill="white" stroke="black" stroke-width="2.22222"/>
<path fill-rule="evenodd" clip-rule="evenodd" d="M129.211 88.9173C127.39 88.6531 125.698 89.9158 125.434 91.7377L121.005 122.27C120.741 124.092 122.004 125.783 123.826 126.048L139.544 128.328L143.09 135.003L148.387 129.61L163.641 131.823C165.463 132.087 167.154 130.825 167.418 129.003L171.847 98.4699C172.111 96.648 170.849 94.9569 169.027 94.6926L129.211 88.9173Z" fill="white"/>
<path d="M139.544 128.328L140.525 127.806L140.261 127.309L139.703 127.228L139.544 128.328ZM143.09 135.003L142.109 135.524L142.82 136.863L143.883 135.781L143.09 135.003ZM148.387 129.61L148.546 128.511L147.989 128.43L147.594 128.832L148.387 129.61ZM126.534 91.8972C126.71 90.6826 127.837 89.8408 129.052 90.0169L129.371 87.8177C126.942 87.4654 124.687 89.149 124.335 91.5782L126.534 91.8972ZM122.105 122.43L126.534 91.8972L124.335 91.5782L119.906 122.111L122.105 122.43ZM123.985 124.948C122.771 124.772 121.929 123.644 122.105 122.43L119.906 122.111C119.553 124.54 121.237 126.795 123.666 127.147L123.985 124.948ZM139.703 127.228L123.985 124.948L123.666 127.147L139.384 129.427L139.703 127.228ZM144.071 134.481L140.525 127.806L138.563 128.849L142.109 135.524L144.071 134.481ZM147.594 128.832L142.298 134.224L143.883 135.781L149.18 130.389L147.594 128.832ZM163.8 130.723L148.546 128.511L148.227 130.71L163.481 132.923L163.8 130.723ZM166.319 128.843C166.143 130.058 165.015 130.9 163.8 130.723L163.481 132.923C165.911 133.275 168.166 131.591 168.518 129.162L166.319 128.843ZM170.748 98.3104L166.319 128.843L168.518 129.162L172.947 98.6294L170.748 98.3104ZM168.867 95.7922C170.082 95.9684 170.924 97.0958 170.748 98.3104L172.947 98.6294C173.299 96.2002 171.615 93.9454 169.186 93.593L168.867 95.7922ZM129.052 90.0169L168.867 95.7922L169.186 93.593L129.371 87.8177L129.052 90.0169Z" fill="black"/>
<path d="M159.864 109.206C158.839 116.273 145.144 120.847 145.144 120.847C145.144 120.847 133.312 112.57 134.337 105.503C135.362 98.4363 146.304 97.5709 147.101 107.355C150.133 98.1263 160.889 102.139 159.864 109.206Z" fill="white" stroke="black" stroke-width="2.22222"/>
<path fill-rule="evenodd" clip-rule="evenodd" d="M151.906 106.417C150.065 106.417 148.573 107.909 148.573 109.75V140.602C148.573 142.443 150.065 143.936 151.906 143.936H167.789L172.256 150.032L176.724 143.936H192.138C193.979 143.936 195.471 142.443 195.471 140.602V109.75C195.471 107.909 193.979 106.417 192.138 106.417H151.906Z" fill="white"/>
<path d="M167.789 143.936L168.685 143.279L168.352 142.825H167.789V143.936ZM172.256 150.032L171.36 150.689L172.256 151.912L173.153 150.689L172.256 150.032ZM176.724 143.936V142.825H176.161L175.828 143.279L176.724 143.936ZM149.684 109.75C149.684 108.523 150.679 107.528 151.906 107.528V105.306C149.451 105.306 147.461 107.295 147.461 109.75H149.684ZM149.684 140.602V109.75H147.461V140.602H149.684ZM151.906 142.825C150.679 142.825 149.684 141.83 149.684 140.602H147.461C147.461 143.057 149.451 145.047 151.906 145.047V142.825ZM167.789 142.825H151.906V145.047H167.789V142.825ZM173.153 149.376L168.685 143.279L166.892 144.592L171.36 150.689L173.153 149.376ZM175.828 143.279L171.36 149.376L173.153 150.689L177.62 144.592L175.828 143.279ZM192.138 142.825H176.724V145.047H192.138V142.825ZM194.36 140.602C194.36 141.83 193.365 142.825 192.138 142.825V145.047C194.592 145.047 196.582 143.057 196.582 140.602H194.36ZM194.36 109.75V140.602H196.582V109.75H194.36ZM192.138 107.528C193.365 107.528 194.36 108.523 194.36 109.75H196.582C196.582 107.295 194.592 105.306 192.138 105.306V107.528ZM151.906 107.528H192.138V105.306H151.906V107.528Z" fill="black"/>
<path d="M185.154 122.095C185.154 129.236 172.256 135.728 172.256 135.728C172.256 135.728 159.359 129.236 159.359 122.095C159.359 114.954 170.064 112.527 172.256 122.095C173.933 112.527 185.154 114.954 185.154 122.095Z" fill="white" stroke="black" stroke-width="2.22222"/>
<path d="M39.1111 128.222H117.333V194.862L39.1111 191.789V128.222Z" fill="white" stroke="black" stroke-width="2.22222"/>
<path d="M38.8926 128.222H117.307L80.4521 162.476H38.8926H4.44446L38.8926 128.222Z" fill="white" stroke="black" stroke-width="2.22222"/>
<path d="M117.333 128.222H195.556V191.789L117.333 194.862V128.222Z" fill="white" stroke="black" stroke-width="2.22222"/>
<path d="M195.721 128.195H117.307L154.161 162.449H195.721H235.565L195.721 128.195Z" fill="white" stroke="black" stroke-width="2.22222"/>
<path fill-rule="evenodd" clip-rule="evenodd" d="M97.1908 44.6667C95.3498 44.6667 93.8574 46.1591 93.8574 48.0001V78.8524C93.8574 80.6933 95.3498 82.1857 97.1908 82.1857H113.073L117.541 88.2826L122.009 82.1857H137.423C139.264 82.1857 140.756 80.6933 140.756 78.8524V48.0001C140.756 46.1591 139.264 44.6667 137.423 44.6667H97.1908Z" fill="white"/>
<path d="M113.073 82.1857L113.97 81.5289L113.637 81.0746H113.073V82.1857ZM117.541 88.2826L116.645 88.9393L117.541 90.1624L118.437 88.9393L117.541 88.2826ZM122.009 82.1857V81.0746H121.446L121.113 81.5289L122.009 82.1857ZM94.9685 48.0001C94.9685 46.7728 95.9635 45.7779 97.1908 45.7779V43.5556C94.7362 43.5556 92.7463 45.5455 92.7463 48.0001H94.9685ZM94.9685 78.8524V48.0001H92.7463V78.8524H94.9685ZM97.1908 81.0746C95.9635 81.0746 94.9685 80.0797 94.9685 78.8524H92.7463C92.7463 81.3069 94.7362 83.2968 97.1908 83.2968V81.0746ZM113.073 81.0746H97.1908V83.2968H113.073V81.0746ZM118.437 87.6258L113.97 81.5289L112.177 82.8424L116.645 88.9393L118.437 87.6258ZM121.113 81.5289L116.645 87.6258L118.437 88.9393L122.905 82.8424L121.113 81.5289ZM137.423 81.0746H122.009V83.2968H137.423V81.0746ZM139.645 78.8524C139.645 80.0797 138.65 81.0746 137.423 81.0746V83.2968C139.877 83.2968 141.867 81.307 141.867 78.8524H139.645ZM139.645 48.0001V78.8524H141.867V48.0001H139.645ZM137.423 45.7779C138.65 45.7779 139.645 46.7728 139.645 48.0001H141.867C141.867 45.5455 139.877 43.5556 137.423 43.5556V45.7779ZM97.1908 45.7779H137.423V43.5556H97.1908V45.7779Z" fill="black"/>
<path d="M130.438 60.3451C130.438 67.4861 117.541 73.9784 117.541 73.9784C117.541 73.9784 104.644 67.4861 104.644 60.3451C104.644 53.2041 115.349 50.777 117.541 60.3451C119.218 50.777 130.438 53.2041 130.438 60.3451Z" fill="white" stroke="black" stroke-width="2.22222"/>
</svg>
