<svg width="240" height="240" viewBox="0 0 240 240" fill="none" xmlns="http://www.w3.org/2000/svg">
<path fill-rule="evenodd" clip-rule="evenodd" d="M42.4444 97.1111C40.6035 97.1111 39.1111 98.6035 39.1111 100.444V131.297C39.1111 133.138 40.6035 134.63 42.4444 134.63H58.3272L62.7949 140.727L67.2626 134.63H82.6765C84.5174 134.63 86.0098 133.138 86.0098 131.297V100.444C86.0098 98.6035 84.5174 97.1111 82.6765 97.1111H42.4444Z" fill="#F2ACB9"/>
<path d="M58.3272 134.63L59.2234 133.973L58.8905 133.519H58.3272V134.63ZM62.7949 140.727L61.8986 141.384L62.7949 142.607L63.6911 141.384L62.7949 140.727ZM67.2626 134.63V133.519H66.6993L66.3663 133.973L67.2626 134.63ZM40.2222 100.444C40.2222 99.2171 41.2171 98.2222 42.4444 98.2222V96C39.9898 96 38 97.9898 38 100.444H40.2222ZM40.2222 131.297V100.444H38V131.297H40.2222ZM42.4444 133.519C41.2171 133.519 40.2222 132.524 40.2222 131.297H38C38 133.751 39.9898 135.741 42.4444 135.741V133.519ZM58.3272 133.519H42.4444V135.741H58.3272V133.519ZM63.6911 140.07L59.2234 133.973L57.4309 135.287L61.8986 141.384L63.6911 140.07ZM66.3663 133.973L61.8986 140.07L63.6911 141.384L68.1588 135.287L66.3663 133.973ZM82.6765 133.519H67.2626V135.741H82.6765V133.519ZM84.8987 131.297C84.8987 132.524 83.9038 133.519 82.6765 133.519V135.741C85.131 135.741 87.1209 133.751 87.1209 131.297H84.8987ZM84.8987 100.444V131.297H87.1209V100.444H84.8987ZM82.6765 98.2222C83.9038 98.2222 84.8987 99.2171 84.8987 100.444H87.1209C87.1209 97.9898 85.1311 96 82.6765 96V98.2222ZM42.4444 98.2222H82.6765V96H42.4444V98.2222Z" fill="#513D5B"/>
<path d="M75.6921 112.789C75.6921 119.93 62.795 126.423 62.795 126.423C62.795 126.423 49.8979 119.93 49.8979 112.789C49.8979 105.648 60.6025 103.221 62.795 112.789C64.4716 103.221 75.6921 105.648 75.6921 112.789Z" fill="white"/>
<path fill-rule="evenodd" clip-rule="evenodd" d="M42.4444 97.1111C40.6035 97.1111 39.1111 98.6035 39.1111 100.444V131.297C39.1111 133.138 40.6035 134.63 42.4444 134.63H58.3272L62.7949 140.727L67.2626 134.63H82.6765C84.5174 134.63 86.0098 133.138 86.0098 131.297V100.444C86.0098 98.6035 84.5174 97.1111 82.6765 97.1111H42.4444Z" fill="#F2ACB9"/>
<path d="M58.3272 134.63L59.2234 133.973L58.8905 133.519H58.3272V134.63ZM62.7949 140.727L61.8986 141.384L62.7949 142.607L63.6911 141.384L62.7949 140.727ZM67.2626 134.63V133.519H66.6993L66.3663 133.973L67.2626 134.63ZM40.2222 100.444C40.2222 99.2171 41.2171 98.2222 42.4444 98.2222V96C39.9898 96 38 97.9898 38 100.444H40.2222ZM40.2222 131.297V100.444H38V131.297H40.2222ZM42.4444 133.519C41.2171 133.519 40.2222 132.524 40.2222 131.297H38C38 133.751 39.9898 135.741 42.4444 135.741V133.519ZM58.3272 133.519H42.4444V135.741H58.3272V133.519ZM63.6911 140.07L59.2234 133.973L57.4309 135.287L61.8986 141.384L63.6911 140.07ZM66.3663 133.973L61.8986 140.07L63.6911 141.384L68.1588 135.287L66.3663 133.973ZM82.6765 133.519H67.2626V135.741H82.6765V133.519ZM84.8987 131.297C84.8987 132.524 83.9038 133.519 82.6765 133.519V135.741C85.131 135.741 87.1209 133.751 87.1209 131.297H84.8987ZM84.8987 100.444V131.297H87.1209V100.444H84.8987ZM82.6765 98.2222C83.9038 98.2222 84.8987 99.2171 84.8987 100.444H87.1209C87.1209 97.9898 85.1311 96 82.6765 96V98.2222ZM42.4444 98.2222H82.6765V96H42.4444V98.2222Z" fill="#513D5B"/>
<path d="M75.6921 112.789C75.6921 119.93 62.795 126.423 62.795 126.423C62.795 126.423 49.8979 119.93 49.8979 112.789C49.8979 105.648 60.6025 103.221 62.795 112.789C64.4716 103.221 75.6921 105.648 75.6921 112.789Z" fill="white"/>
<path fill-rule="evenodd" clip-rule="evenodd" d="M51.7607 71.9581C49.9292 72.1442 48.5953 73.7797 48.7813 75.6113L51.8991 106.306C52.0852 108.137 53.7207 109.471 55.5523 109.285L71.3537 107.68L76.4146 113.294L80.2433 106.777L95.5783 105.219C97.4098 105.033 98.7438 103.398 98.5577 101.566L95.4399 70.8718C95.2539 69.0403 93.6183 67.7064 91.7868 67.8924L51.7607 71.9581Z" fill="#F2ACB9"/>
<path d="M71.3537 107.68L72.179 106.936L71.8018 106.518L71.2414 106.575L71.3537 107.68ZM76.4146 113.294L75.5894 114.038L76.6046 115.164L77.3727 113.857L76.4146 113.294ZM80.2433 106.777L80.1311 105.672L79.5706 105.728L79.2853 106.214L80.2433 106.777ZM98.5577 101.566L97.4523 101.678L98.5577 101.566ZM95.4399 70.8718L96.5453 70.7596L95.4399 70.8718ZM49.8867 75.499C49.7627 74.278 50.652 73.1876 51.873 73.0636L51.6484 70.8527C49.2064 71.1008 47.4278 73.2815 47.6759 75.7235L49.8867 75.499ZM53.0046 106.193L49.8867 75.499L47.6759 75.7235L50.7937 106.418L53.0046 106.193ZM55.44 108.18C54.219 108.304 53.1286 107.414 53.0046 106.193L50.7937 106.418C51.0418 108.86 53.2225 110.638 55.6645 110.39L55.44 108.18ZM71.2414 106.575L55.44 108.18L55.6645 110.39L71.466 108.785L71.2414 106.575ZM77.2399 112.55L72.179 106.936L70.5284 108.424L75.5894 114.038L77.2399 112.55ZM79.2853 106.214L75.4566 112.731L77.3727 113.857L81.2014 107.34L79.2853 106.214ZM95.466 104.114L80.1311 105.672L80.3556 107.882L95.6906 106.325L95.466 104.114ZM97.4523 101.678C97.5763 102.899 96.687 103.99 95.466 104.114L95.6906 106.325C98.1326 106.077 99.9112 103.896 99.6631 101.454L97.4523 101.678ZM94.3345 70.9841L97.4523 101.678L99.6631 101.454L96.5453 70.7596L94.3345 70.9841ZM91.8991 68.9979C93.1201 68.8738 94.2104 69.7631 94.3345 70.9841L96.5453 70.7596C96.2973 68.3175 94.1165 66.539 91.6745 66.787L91.8991 68.9979ZM51.873 73.0636L91.8991 68.9979L91.6745 66.787L51.6484 70.8527L51.873 73.0636Z" fill="#513D5B"/>
<path d="M86.4226 84.1963C87.1442 91.3007 74.9692 99.0632 74.9692 99.0632C74.9692 99.0632 61.482 93.9074 60.7604 86.803C60.0387 79.6986 70.4433 76.2021 73.5915 85.4997C74.2926 75.8111 85.701 77.0919 86.4226 84.1963Z" fill="white"/>
<path fill-rule="evenodd" clip-rule="evenodd" d="M51.7607 71.9581C49.9292 72.1442 48.5953 73.7797 48.7813 75.6113L51.8991 106.306C52.0852 108.137 53.7207 109.471 55.5523 109.285L71.3537 107.68L76.4146 113.294L80.2433 106.777L95.5783 105.219C97.4098 105.033 98.7438 103.398 98.5577 101.566L95.4399 70.8718C95.2539 69.0403 93.6183 67.7064 91.7868 67.8924L51.7607 71.9581Z" fill="#F2ACB9"/>
<path d="M71.3537 107.68L72.179 106.936L71.8018 106.518L71.2414 106.575L71.3537 107.68ZM76.4146 113.294L75.5894 114.038L76.6046 115.164L77.3727 113.857L76.4146 113.294ZM80.2433 106.777L80.1311 105.672L79.5706 105.728L79.2853 106.214L80.2433 106.777ZM98.5577 101.566L97.4523 101.678L98.5577 101.566ZM95.4399 70.8718L96.5453 70.7596L95.4399 70.8718ZM49.8867 75.499C49.7627 74.278 50.652 73.1876 51.873 73.0636L51.6484 70.8527C49.2064 71.1008 47.4278 73.2815 47.6759 75.7235L49.8867 75.499ZM53.0046 106.193L49.8867 75.499L47.6759 75.7235L50.7937 106.418L53.0046 106.193ZM55.44 108.18C54.219 108.304 53.1286 107.414 53.0046 106.193L50.7937 106.418C51.0418 108.86 53.2225 110.638 55.6645 110.39L55.44 108.18ZM71.2414 106.575L55.44 108.18L55.6645 110.39L71.466 108.785L71.2414 106.575ZM77.2399 112.55L72.179 106.936L70.5284 108.424L75.5894 114.038L77.2399 112.55ZM79.2853 106.214L75.4566 112.731L77.3727 113.857L81.2014 107.34L79.2853 106.214ZM95.466 104.114L80.1311 105.672L80.3556 107.882L95.6906 106.325L95.466 104.114ZM97.4523 101.678C97.5763 102.899 96.687 103.99 95.466 104.114L95.6906 106.325C98.1326 106.077 99.9112 103.896 99.6631 101.454L97.4523 101.678ZM94.3345 70.9841L97.4523 101.678L99.6631 101.454L96.5453 70.7596L94.3345 70.9841ZM91.8991 68.9979C93.1201 68.8738 94.2104 69.7631 94.3345 70.9841L96.5453 70.7596C96.2973 68.3175 94.1165 66.539 91.6745 66.787L91.8991 68.9979ZM51.873 73.0636L91.8991 68.9979L91.6745 66.787L51.6484 70.8527L51.873 73.0636Z" fill="#513D5B"/>
<path d="M86.4226 84.1963C87.1442 91.3007 74.9692 99.0632 74.9692 99.0632C74.9692 99.0632 61.482 93.9074 60.7604 86.803C60.0387 79.6986 70.4433 76.2021 73.5915 85.4997C74.2926 75.8111 85.7009 77.0919 86.4226 84.1963Z" fill="white"/>
<path fill-rule="evenodd" clip-rule="evenodd" d="M90.8718 77.5137C89.0403 77.6997 87.7064 79.3353 87.8924 81.1668L91.0102 111.861C91.1963 113.693 92.8318 115.027 94.6633 114.841L110.465 113.235L115.526 118.85L119.354 112.333L134.689 110.775C136.521 110.589 137.855 108.953 137.669 107.122L134.551 76.4274C134.365 74.5959 132.729 73.2619 130.898 73.448L90.8718 77.5137Z" fill="#F2ACB9"/>
<path d="M110.465 113.235L111.29 112.492L110.913 112.073L110.352 112.13L110.465 113.235ZM115.526 118.85L114.7 119.594L115.716 120.72L116.484 119.412L115.526 118.85ZM119.354 112.333L119.242 111.227L118.682 111.284L118.396 111.77L119.354 112.333ZM134.689 110.775L134.802 111.88L134.689 110.775ZM88.9978 81.0545C88.8738 79.8335 89.7631 78.7431 90.9841 78.6191L90.7595 76.4082C88.3175 76.6563 86.5389 78.837 86.787 81.2791L88.9978 81.0545ZM92.1156 111.749L88.9978 81.0545L86.787 81.2791L89.9048 111.973L92.1156 111.749ZM94.5511 113.735C93.33 113.859 92.2397 112.97 92.1156 111.749L89.9048 111.973C90.1528 114.415 92.3336 116.194 94.7756 115.946L94.5511 113.735ZM110.352 112.13L94.5511 113.735L94.7756 115.946L110.577 114.341L110.352 112.13ZM116.351 118.106L111.29 112.492L109.639 113.979L114.7 119.594L116.351 118.106ZM118.396 111.77L114.568 118.287L116.484 119.412L120.312 112.895L118.396 111.77ZM134.577 109.669L119.242 111.227L119.467 113.438L134.802 111.88L134.577 109.669ZM136.563 107.234C136.687 108.455 135.798 109.545 134.577 109.669L134.802 111.88C137.244 111.632 139.022 109.451 138.774 107.009L136.563 107.234ZM133.446 76.5397L136.563 107.234L138.774 107.009L135.656 76.3151L133.446 76.5397ZM131.01 74.5534C132.231 74.4294 133.322 75.3187 133.446 76.5397L135.656 76.3151C135.408 73.8731 133.228 72.0945 130.786 72.3425L131.01 74.5534ZM90.9841 78.6191L131.01 74.5534L130.786 72.3425L90.7595 76.4082L90.9841 78.6191Z" fill="#513D5B"/>
<path d="M125.534 89.7518C126.255 96.8562 114.08 104.619 114.08 104.619C114.08 104.619 100.593 99.4629 99.8715 92.3585C99.1498 85.2541 109.554 81.7577 112.703 91.0552C113.404 81.3667 124.812 82.6474 125.534 89.7518Z" fill="white"/>
<path fill-rule="evenodd" clip-rule="evenodd" d="M90.8718 77.5137C89.0403 77.6997 87.7064 79.3353 87.8924 81.1668L91.0102 111.861C91.1963 113.693 92.8318 115.027 94.6633 114.841L110.465 113.235L115.526 118.85L119.354 112.333L134.689 110.775C136.521 110.589 137.855 108.953 137.669 107.122L134.551 76.4274C134.365 74.5959 132.729 73.2619 130.898 73.448L90.8718 77.5137Z" fill="#F2ACB9"/>
<path d="M110.465 113.235L111.29 112.492L110.913 112.073L110.352 112.13L110.465 113.235ZM115.526 118.85L114.7 119.594L115.716 120.72L116.484 119.412L115.526 118.85ZM119.354 112.333L119.242 111.227L118.682 111.284L118.396 111.77L119.354 112.333ZM134.689 110.775L134.802 111.88L134.689 110.775ZM88.9978 81.0545C88.8738 79.8335 89.7631 78.7431 90.9841 78.6191L90.7595 76.4082C88.3175 76.6563 86.5389 78.837 86.787 81.2791L88.9978 81.0545ZM92.1156 111.749L88.9978 81.0545L86.787 81.2791L89.9048 111.973L92.1156 111.749ZM94.5511 113.735C93.33 113.859 92.2397 112.97 92.1156 111.749L89.9048 111.973C90.1528 114.415 92.3336 116.194 94.7756 115.946L94.5511 113.735ZM110.352 112.13L94.5511 113.735L94.7756 115.946L110.577 114.341L110.352 112.13ZM116.351 118.106L111.29 112.492L109.639 113.979L114.7 119.594L116.351 118.106ZM118.396 111.77L114.568 118.287L116.484 119.412L120.312 112.895L118.396 111.77ZM134.577 109.669L119.242 111.227L119.467 113.438L134.802 111.88L134.577 109.669ZM136.563 107.234C136.687 108.455 135.798 109.545 134.577 109.669L134.802 111.88C137.244 111.632 139.022 109.451 138.774 107.009L136.563 107.234ZM133.446 76.5397L136.563 107.234L138.774 107.009L135.656 76.3151L133.446 76.5397ZM131.01 74.5534C132.231 74.4294 133.322 75.3187 133.446 76.5397L135.656 76.3151C135.408 73.8731 133.228 72.0945 130.786 72.3425L131.01 74.5534ZM90.9841 78.6191L131.01 74.5534L130.786 72.3425L90.7595 76.4082L90.9841 78.6191Z" fill="#513D5B"/>
<path d="M125.534 89.7518C126.255 96.8562 114.08 104.619 114.08 104.619C114.08 104.619 100.593 99.4629 99.8714 92.3585C99.1498 85.2541 109.554 81.7577 112.703 91.0552C113.404 81.3667 124.812 82.6474 125.534 89.7518Z" fill="white"/>
<path fill-rule="evenodd" clip-rule="evenodd" d="M135.538 71.9581C133.707 72.1442 132.373 73.7797 132.559 75.6113L135.677 106.306C135.863 108.137 137.498 109.471 139.33 109.285L155.131 107.68L160.192 113.294L164.021 106.777L179.356 105.219C181.188 105.033 182.522 103.398 182.335 101.566L179.218 70.8718C179.032 69.0403 177.396 67.7064 175.565 67.8924L135.538 71.9581Z" fill="#F2ACB9"/>
<path d="M132.559 75.6113L131.454 75.7235L132.559 75.6113ZM135.677 106.306L136.782 106.193L135.677 106.306ZM155.131 107.68L155.957 106.936L155.58 106.518L155.019 106.575L155.131 107.68ZM160.192 113.294L159.367 114.038L160.382 115.164L161.15 113.857L160.192 113.294ZM164.021 106.777L163.909 105.672L163.348 105.728L163.063 106.214L164.021 106.777ZM179.356 105.219L179.244 104.114L179.356 105.219ZM133.665 75.499C133.54 74.278 134.43 73.1876 135.651 73.0636L135.426 70.8527C132.984 71.1008 131.206 73.2815 131.454 75.7235L133.665 75.499ZM136.782 106.193L133.665 75.499L131.454 75.7235L134.571 106.418L136.782 106.193ZM139.218 108.18C137.997 108.304 136.906 107.414 136.782 106.193L134.571 106.418C134.82 108.86 137 110.638 139.442 110.39L139.218 108.18ZM155.019 106.575L139.218 108.18L139.442 110.39L155.244 108.785L155.019 106.575ZM161.018 112.55L155.957 106.936L154.306 108.424L159.367 114.038L161.018 112.55ZM163.063 106.214L159.234 112.731L161.15 113.857L164.979 107.34L163.063 106.214ZM179.244 104.114L163.909 105.672L164.133 107.882L179.468 106.325L179.244 104.114ZM181.23 101.678C181.354 102.899 180.465 103.99 179.244 104.114L179.468 106.325C181.91 106.077 183.689 103.896 183.441 101.454L181.23 101.678ZM178.112 70.9841L181.23 101.678L183.441 101.454L180.323 70.7596L178.112 70.9841ZM175.677 68.9979C176.898 68.8738 177.988 69.7631 178.112 70.9841L180.323 70.7596C180.075 68.3175 177.894 66.539 175.452 66.787L175.677 68.9979ZM135.651 73.0636L175.677 68.9979L175.452 66.787L135.426 70.8527L135.651 73.0636Z" fill="#513D5B"/>
<path d="M170.2 84.1963C170.922 91.3007 158.747 99.0632 158.747 99.0632C158.747 99.0632 145.26 93.9074 144.538 86.803C143.817 79.6986 154.221 76.2021 157.369 85.4997C158.07 75.8111 169.479 77.0919 170.2 84.1963Z" fill="white"/>
<path fill-rule="evenodd" clip-rule="evenodd" d="M135.538 71.9581C133.707 72.1442 132.373 73.7797 132.559 75.6113L135.677 106.306C135.863 108.137 137.498 109.471 139.33 109.285L155.131 107.68L160.192 113.294L164.021 106.777L179.356 105.219C181.188 105.033 182.522 103.398 182.335 101.566L179.218 70.8718C179.032 69.0403 177.396 67.7064 175.565 67.8924L135.538 71.9581Z" fill="#F2ACB9"/>
<path d="M132.559 75.6113L131.454 75.7235L132.559 75.6113ZM135.677 106.306L136.782 106.193L135.677 106.306ZM155.131 107.68L155.957 106.936L155.58 106.518L155.019 106.575L155.131 107.68ZM160.192 113.294L159.367 114.038L160.382 115.164L161.15 113.857L160.192 113.294ZM164.021 106.777L163.909 105.672L163.348 105.728L163.063 106.214L164.021 106.777ZM179.356 105.219L179.244 104.114L179.356 105.219ZM133.665 75.499C133.54 74.278 134.43 73.1876 135.651 73.0636L135.426 70.8527C132.984 71.1008 131.206 73.2815 131.454 75.7235L133.665 75.499ZM136.782 106.193L133.665 75.499L131.454 75.7235L134.571 106.418L136.782 106.193ZM139.218 108.18C137.997 108.304 136.906 107.414 136.782 106.193L134.571 106.418C134.82 108.86 137 110.638 139.442 110.39L139.218 108.18ZM155.019 106.575L139.218 108.18L139.442 110.39L155.244 108.785L155.019 106.575ZM161.018 112.55L155.957 106.936L154.306 108.424L159.367 114.038L161.018 112.55ZM163.063 106.214L159.234 112.731L161.15 113.857L164.979 107.34L163.063 106.214ZM179.244 104.114L163.909 105.672L164.133 107.882L179.468 106.325L179.244 104.114ZM181.23 101.678C181.354 102.899 180.465 103.99 179.244 104.114L179.468 106.325C181.91 106.077 183.689 103.896 183.441 101.454L181.23 101.678ZM178.112 70.9841L181.23 101.678L183.441 101.454L180.323 70.7596L178.112 70.9841ZM175.677 68.9979C176.898 68.8738 177.988 69.7631 178.112 70.9841L180.323 70.7596C180.075 68.3175 177.894 66.539 175.452 66.787L175.677 68.9979ZM135.651 73.0636L175.677 68.9979L175.452 66.787L135.426 70.8527L135.651 73.0636Z" fill="#513D5B"/>
<path d="M170.2 84.1963C170.922 91.3007 158.747 99.0632 158.747 99.0632C158.747 99.0632 145.26 93.9074 144.538 86.803C143.816 79.6986 154.221 76.2021 157.369 85.4997C158.07 75.8111 169.479 77.0919 170.2 84.1963Z" fill="white"/>
<path fill-rule="evenodd" clip-rule="evenodd" d="M83.9755 103.272C82.1481 103.494 80.8472 105.156 81.07 106.984L84.8032 137.609C85.026 139.437 86.688 140.738 88.5154 140.515L104.281 138.593L109.454 144.104L113.151 137.512L128.452 135.647C130.279 135.424 131.58 133.762 131.357 131.934L127.624 101.309C127.401 99.4814 125.739 98.1806 123.912 98.4033L83.9755 103.272Z" fill="#F2ACB9"/>
<path d="M88.5154 140.515L88.381 139.412L88.5154 140.515ZM104.281 138.593L105.092 137.833L104.706 137.422L104.147 137.49L104.281 138.593ZM109.454 144.104L108.644 144.865L109.682 145.97L110.423 144.648L109.454 144.104ZM113.151 137.512L113.017 136.409L112.458 136.477L112.182 136.968L113.151 137.512ZM131.357 131.934L130.254 132.069L131.357 131.934ZM127.624 101.309L128.727 101.174L127.624 101.309ZM82.1729 106.849C82.0244 105.631 82.8917 104.523 84.1099 104.374L83.841 102.169C81.4045 102.466 79.67 104.682 79.9671 107.118L82.1729 106.849ZM85.9062 137.475L82.1729 106.849L79.9671 107.118L83.7003 137.744L85.9062 137.475ZM88.381 139.412C87.1627 139.56 86.0547 138.693 85.9062 137.475L83.7003 137.744C83.9973 140.18 86.2133 141.915 88.6499 141.618L88.381 139.412ZM104.147 137.49L88.381 139.412L88.6499 141.618L104.416 139.696L104.147 137.49ZM110.264 143.344L105.092 137.833L103.471 139.353L108.644 144.865L110.264 143.344ZM112.182 136.968L108.485 143.561L110.423 144.648L114.12 138.055L112.182 136.968ZM128.317 134.544L113.017 136.409L113.286 138.615L128.586 136.75L128.317 134.544ZM130.254 132.069C130.403 133.287 129.536 134.395 128.317 134.544L128.586 136.75C131.023 136.453 132.757 134.237 132.46 131.8L130.254 132.069ZM126.521 101.443L130.254 132.069L132.46 131.8L128.727 101.174L126.521 101.443ZM124.046 99.5063C125.265 99.3578 126.373 100.225 126.521 101.443L128.727 101.174C128.43 98.7378 126.214 97.0034 123.777 97.3004L124.046 99.5063ZM84.1099 104.374L124.046 99.5063L123.777 97.3004L83.841 102.169L84.1099 104.374Z" fill="#513D5B"/>
<path d="M118.876 114.812C119.74 121.9 107.723 129.905 107.723 129.905C107.723 129.905 94.1354 125.021 93.2713 117.933C92.4072 110.844 102.739 107.14 106.074 116.372C106.58 106.672 118.012 107.723 118.876 114.812Z" fill="white"/>
<path fill-rule="evenodd" clip-rule="evenodd" d="M83.9755 103.272C82.1481 103.494 80.8472 105.156 81.07 106.984L84.8032 137.609C85.026 139.437 86.688 140.738 88.5154 140.515L104.281 138.593L109.454 144.104L113.151 137.512L128.452 135.647C130.279 135.424 131.58 133.762 131.357 131.934L127.624 101.309C127.401 99.4814 125.739 98.1806 123.912 98.4033L83.9755 103.272Z" fill="#F2ACB9"/>
<path d="M88.5154 140.515L88.381 139.412L88.5154 140.515ZM104.281 138.593L105.092 137.833L104.706 137.422L104.147 137.49L104.281 138.593ZM109.454 144.104L108.644 144.865L109.682 145.97L110.423 144.648L109.454 144.104ZM113.151 137.512L113.017 136.409L112.458 136.477L112.182 136.968L113.151 137.512ZM131.357 131.934L130.254 132.069L131.357 131.934ZM127.624 101.309L128.727 101.174L127.624 101.309ZM82.1729 106.849C82.0244 105.631 82.8917 104.523 84.1099 104.374L83.841 102.169C81.4045 102.466 79.67 104.682 79.9671 107.118L82.1729 106.849ZM85.9062 137.475L82.1729 106.849L79.9671 107.118L83.7003 137.744L85.9062 137.475ZM88.381 139.412C87.1627 139.56 86.0547 138.693 85.9062 137.475L83.7003 137.744C83.9973 140.18 86.2133 141.915 88.6499 141.618L88.381 139.412ZM104.147 137.49L88.381 139.412L88.6499 141.618L104.416 139.696L104.147 137.49ZM110.264 143.344L105.092 137.833L103.471 139.353L108.644 144.865L110.264 143.344ZM112.182 136.968L108.485 143.561L110.423 144.648L114.12 138.055L112.182 136.968ZM128.317 134.544L113.017 136.409L113.286 138.615L128.586 136.75L128.317 134.544ZM130.254 132.069C130.403 133.287 129.536 134.395 128.317 134.544L128.586 136.75C131.023 136.453 132.757 134.237 132.46 131.8L130.254 132.069ZM126.521 101.443L130.254 132.069L132.46 131.8L128.727 101.174L126.521 101.443ZM124.046 99.5063C125.265 99.3578 126.373 100.225 126.521 101.443L128.727 101.174C128.43 98.7378 126.214 97.0034 123.777 97.3004L124.046 99.5063ZM84.1099 104.374L124.046 99.5063L123.777 97.3004L83.841 102.169L84.1099 104.374Z" fill="#513D5B"/>
<path d="M118.876 114.812C119.74 121.9 107.723 129.905 107.723 129.905C107.723 129.905 94.1353 125.021 93.2712 117.933C92.4072 110.844 102.739 107.14 106.074 116.372C106.58 106.672 118.012 107.723 118.876 114.812Z" fill="white"/>
<path fill-rule="evenodd" clip-rule="evenodd" d="M129.212 89.1383C127.39 88.8742 125.699 90.137 125.435 91.9589L121.008 122.492C120.744 124.314 122.007 126.005 123.828 126.269L139.547 128.548L143.093 135.223L148.39 129.83L163.644 132.042C165.466 132.306 167.157 131.043 167.421 129.221L171.848 98.6885C172.113 96.8666 170.85 95.1755 169.028 94.9113L129.212 89.1383Z" fill="#F2ACB9"/>
<path d="M125.435 91.9589L126.535 92.1183L125.435 91.9589ZM129.212 89.1383L129.372 88.0387L129.212 89.1383ZM121.008 122.492L119.908 122.332L121.008 122.492ZM139.547 128.548L140.528 128.027L140.264 127.529L139.706 127.448L139.547 128.548ZM143.093 135.223L142.112 135.744L142.824 137.083L143.886 136.001L143.093 135.223ZM148.39 129.83L148.549 128.731L147.992 128.65L147.597 129.052L148.39 129.83ZM163.644 132.042L163.485 133.142L163.644 132.042ZM169.028 94.9113L168.868 96.011L169.028 94.9113ZM126.535 92.1183C126.711 90.9037 127.838 90.0618 129.053 90.238L129.372 88.0387C126.942 87.6865 124.688 89.3702 124.335 91.7994L126.535 92.1183ZM122.108 122.651L126.535 92.1183L124.335 91.7994L119.908 122.332L122.108 122.651ZM123.988 125.169C122.773 124.993 121.931 123.866 122.108 122.651L119.908 122.332C119.556 124.762 121.24 127.016 123.669 127.369L123.988 125.169ZM139.706 127.448L123.988 125.169L123.669 127.369L139.387 129.648L139.706 127.448ZM144.075 134.702L140.528 128.027L138.566 129.069L142.112 135.744L144.075 134.702ZM147.597 129.052L142.301 134.444L143.886 136.001L149.182 130.609L147.597 129.052ZM163.804 130.942L148.549 128.731L148.23 130.93L163.485 133.142L163.804 130.942ZM166.322 129.062C166.146 130.277 165.018 131.119 163.804 130.942L163.485 133.142C165.914 133.494 168.169 131.81 168.521 129.381L166.322 129.062ZM170.749 98.529L166.322 129.062L168.521 129.381L172.948 98.8479L170.749 98.529ZM168.868 96.011C170.083 96.1871 170.925 97.3145 170.749 98.529L172.948 98.8479C173.3 96.4187 171.616 94.1639 169.187 93.8117L168.868 96.011ZM129.053 90.238L168.868 96.011L169.187 93.8117L129.372 88.0387L129.053 90.238Z" fill="#513D5B"/>
<path d="M159.866 109.425C158.841 116.492 145.146 121.067 145.146 121.067C145.146 121.067 133.314 112.791 134.339 105.724C135.363 98.6569 146.306 97.7909 147.102 107.575C150.135 98.3461 160.891 102.358 159.866 109.425Z" fill="white"/>
<path fill-rule="evenodd" clip-rule="evenodd" d="M129.212 89.1383C127.39 88.8742 125.699 90.137 125.435 91.9589L121.008 122.492C120.744 124.314 122.007 126.005 123.828 126.269L139.547 128.548L143.093 135.223L148.39 129.83L163.644 132.042C165.466 132.306 167.157 131.043 167.421 129.221L171.848 98.6885C172.113 96.8666 170.85 95.1755 169.028 94.9113L129.212 89.1383Z" fill="#F2ACB9"/>
<path d="M125.435 91.9589L126.535 92.1183L125.435 91.9589ZM129.212 89.1383L129.372 88.0387L129.212 89.1383ZM121.008 122.492L119.908 122.332L121.008 122.492ZM139.547 128.548L140.528 128.027L140.264 127.529L139.706 127.448L139.547 128.548ZM143.093 135.223L142.112 135.744L142.824 137.083L143.886 136.001L143.093 135.223ZM148.39 129.83L148.549 128.731L147.992 128.65L147.597 129.052L148.39 129.83ZM163.644 132.042L163.485 133.142L163.644 132.042ZM169.028 94.9113L168.868 96.011L169.028 94.9113ZM126.535 92.1183C126.711 90.9037 127.838 90.0618 129.053 90.238L129.372 88.0387C126.942 87.6865 124.688 89.3702 124.335 91.7994L126.535 92.1183ZM122.108 122.651L126.535 92.1183L124.335 91.7994L119.908 122.332L122.108 122.651ZM123.988 125.169C122.773 124.993 121.931 123.866 122.108 122.651L119.908 122.332C119.556 124.762 121.24 127.016 123.669 127.369L123.988 125.169ZM139.706 127.448L123.988 125.169L123.669 127.369L139.387 129.648L139.706 127.448ZM144.075 134.702L140.528 128.027L138.566 129.069L142.112 135.744L144.075 134.702ZM147.597 129.052L142.301 134.444L143.886 136.001L149.182 130.609L147.597 129.052ZM163.804 130.942L148.549 128.731L148.23 130.93L163.485 133.142L163.804 130.942ZM166.322 129.062C166.146 130.277 165.018 131.119 163.804 130.942L163.485 133.142C165.914 133.494 168.169 131.81 168.521 129.381L166.322 129.062ZM170.749 98.529L166.322 129.062L168.521 129.381L172.948 98.8479L170.749 98.529ZM168.868 96.011C170.083 96.1871 170.925 97.3145 170.749 98.529L172.948 98.8479C173.3 96.4187 171.616 94.1639 169.187 93.8117L168.868 96.011ZM129.053 90.238L168.868 96.011L169.187 93.8117L129.372 88.0387L129.053 90.238Z" fill="#513D5B"/>
<path d="M159.866 109.425C158.841 116.492 145.146 121.067 145.146 121.067C145.146 121.067 133.314 112.791 134.339 105.724C135.363 98.6569 146.305 97.7909 147.102 107.575C150.135 98.3461 160.891 102.358 159.866 109.425Z" fill="white"/>
<path fill-rule="evenodd" clip-rule="evenodd" d="M152 106.444C150.159 106.444 148.667 107.937 148.667 109.778V140.63C148.667 142.471 150.159 143.963 152 143.963H167.883L172.35 150.06L176.818 143.963H192.232C194.073 143.963 195.565 142.471 195.565 140.63V109.778C195.565 107.937 194.073 106.444 192.232 106.444H152Z" fill="#F2ACB9"/>
<path d="M167.883 143.963L168.779 143.307L168.446 142.852H167.883V143.963ZM172.35 150.06L171.454 150.717L172.35 151.94L173.247 150.717L172.35 150.06ZM176.818 143.963V142.852H176.255L175.922 143.307L176.818 143.963ZM149.778 109.778C149.778 108.55 150.773 107.556 152 107.556V105.333C149.545 105.333 147.556 107.323 147.556 109.778H149.778ZM149.778 140.63V109.778H147.556V140.63H149.778ZM152 142.852C150.773 142.852 149.778 141.857 149.778 140.63H147.556C147.556 143.085 149.545 145.075 152 145.075V142.852ZM167.883 142.852H152V145.075H167.883V142.852ZM173.247 149.403L168.779 143.307L166.987 144.62L171.454 150.717L173.247 149.403ZM175.922 143.307L171.454 149.403L173.247 150.717L177.714 144.62L175.922 143.307ZM192.232 142.852H176.818V145.075H192.232V142.852ZM194.454 140.63C194.454 141.857 193.459 142.852 192.232 142.852V145.075C194.687 145.075 196.676 143.085 196.676 140.63H194.454ZM194.454 109.778V140.63H196.676V109.778H194.454ZM192.232 107.556C193.459 107.556 194.454 108.55 194.454 109.778H196.676C196.676 107.323 194.687 105.333 192.232 105.333V107.556ZM152 107.556H192.232V105.333H152V107.556Z" fill="#513D5B"/>
<path d="M185.248 122.123C185.248 129.264 172.351 135.756 172.351 135.756C172.351 135.756 159.453 129.264 159.453 122.123C159.453 114.982 170.158 112.555 172.351 122.123C174.027 112.555 185.248 114.982 185.248 122.123Z" fill="white"/>
<path fill-rule="evenodd" clip-rule="evenodd" d="M152 106.444C150.159 106.444 148.667 107.937 148.667 109.778V140.63C148.667 142.471 150.159 143.963 152 143.963H167.883L172.35 150.06L176.818 143.963H192.232C194.073 143.963 195.565 142.471 195.565 140.63V109.778C195.565 107.937 194.073 106.444 192.232 106.444H152Z" fill="#F2ACB9"/>
<path d="M167.883 143.963L168.779 143.307L168.446 142.852H167.883V143.963ZM172.35 150.06L171.454 150.717L172.35 151.94L173.247 150.717L172.35 150.06ZM176.818 143.963V142.852H176.255L175.922 143.307L176.818 143.963ZM149.778 109.778C149.778 108.55 150.773 107.556 152 107.556V105.333C149.545 105.333 147.556 107.323 147.556 109.778H149.778ZM149.778 140.63V109.778H147.556V140.63H149.778ZM152 142.852C150.773 142.852 149.778 141.857 149.778 140.63H147.556C147.556 143.085 149.545 145.075 152 145.075V142.852ZM167.883 142.852H152V145.075H167.883V142.852ZM173.247 149.403L168.779 143.307L166.987 144.62L171.454 150.717L173.247 149.403ZM175.922 143.307L171.454 149.403L173.247 150.717L177.714 144.62L175.922 143.307ZM192.232 142.852H176.818V145.075H192.232V142.852ZM194.454 140.63C194.454 141.857 193.459 142.852 192.232 142.852V145.075C194.687 145.075 196.676 143.085 196.676 140.63H194.454ZM194.454 109.778V140.63H196.676V109.778H194.454ZM192.232 107.556C193.459 107.556 194.454 108.55 194.454 109.778H196.676C196.676 107.323 194.687 105.333 192.232 105.333V107.556ZM152 107.556H192.232V105.333H152V107.556Z" fill="#513D5B"/>
<path d="M185.248 122.123C185.248 129.264 172.351 135.756 172.351 135.756C172.351 135.756 159.453 129.264 159.453 122.123C159.453 114.982 170.158 112.555 172.351 122.123C174.027 112.555 185.248 114.982 185.248 122.123Z" fill="white"/>
<path d="M39.1423 128.505H117.307V195.084L39.1423 192.014V128.505Z" fill="#F2B6A0" stroke="#513D5B" stroke-width="2.22222"/>
<path d="M38.8926 128.417H117.307L80.4521 156.446H38.8926H4.44446L38.8926 128.417Z" fill="#F2B6A0" stroke="#513D5B" stroke-width="2.22222"/>
<path d="M117.307 128.505H195.471V192.014L117.307 195.084V128.505Z" fill="#F2B6A0" stroke="#513D5B" stroke-width="2.22222"/>
<path d="M195.721 128.417H117.307L154.161 156.446H195.721H235.565L195.721 128.417Z" fill="#F2B6A0" stroke="#513D5B" stroke-width="2.22222"/>
<path fill-rule="evenodd" clip-rule="evenodd" d="M97.3333 44.8889C95.4924 44.8889 94 46.3813 94 48.2222V79.0745C94 80.9155 95.4924 82.4079 97.3333 82.4079H113.216L117.684 88.5047L122.151 82.4079H137.565C139.406 82.4079 140.899 80.9155 140.899 79.0745V48.2222C140.899 46.3813 139.406 44.8889 137.565 44.8889H97.3333Z" fill="#F2ACB9"/>
<path d="M113.216 82.4079L114.112 81.7511L113.779 81.2967H113.216V82.4079ZM117.684 88.5047L116.788 89.1614L117.684 90.3845L118.58 89.1614L117.684 88.5047ZM122.151 82.4079V81.2967H121.588L121.255 81.7511L122.151 82.4079ZM95.1111 48.2222C95.1111 46.9949 96.106 46 97.3333 46V43.7778C94.8787 43.7778 92.8889 45.7676 92.8889 48.2222H95.1111ZM95.1111 79.0745V48.2222H92.8889V79.0745H95.1111ZM97.3333 81.2967C96.106 81.2967 95.1111 80.3018 95.1111 79.0745H92.8889C92.8889 81.5291 94.8787 83.519 97.3333 83.519V81.2967ZM113.216 81.2967H97.3333V83.519H113.216V81.2967ZM118.58 87.8479L114.112 81.7511L112.32 83.0646L116.788 89.1614L118.58 87.8479ZM121.255 81.7511L116.788 87.8479L118.58 89.1614L123.048 83.0646L121.255 81.7511ZM137.565 81.2967H122.151V83.519H137.565V81.2967ZM139.788 79.0745C139.788 80.3018 138.793 81.2967 137.565 81.2967V83.519C140.02 83.519 142.01 81.5291 142.01 79.0745H139.788ZM139.788 48.2222V79.0745H142.01V48.2222H139.788ZM137.565 46C138.793 46 139.788 46.9949 139.788 48.2222H142.01C142.01 45.7677 140.02 43.7778 137.565 43.7778V46ZM97.3333 46H137.565V43.7778H97.3333V46Z" fill="#513D5B"/>
<path d="M130.581 60.5673C130.581 67.7082 117.684 74.2006 117.684 74.2006C117.684 74.2006 104.787 67.7082 104.787 60.5673C104.787 53.4263 115.491 50.9992 117.684 60.5673C119.361 50.9992 130.581 53.4263 130.581 60.5673Z" fill="white"/>
<path fill-rule="evenodd" clip-rule="evenodd" d="M97.3333 44.8889C95.4924 44.8889 94 46.3813 94 48.2222V79.0745C94 80.9155 95.4924 82.4079 97.3333 82.4079H113.216L117.684 88.5047L122.151 82.4079H137.565C139.406 82.4079 140.899 80.9155 140.899 79.0745V48.2222C140.899 46.3813 139.406 44.8889 137.565 44.8889H97.3333Z" fill="#F2ACB9"/>
<path d="M113.216 82.4079L114.112 81.7511L113.779 81.2967H113.216V82.4079ZM117.684 88.5047L116.788 89.1614L117.684 90.3845L118.58 89.1614L117.684 88.5047ZM122.151 82.4079V81.2967H121.588L121.255 81.7511L122.151 82.4079ZM95.1111 48.2222C95.1111 46.9949 96.106 46 97.3333 46V43.7778C94.8787 43.7778 92.8889 45.7676 92.8889 48.2222H95.1111ZM95.1111 79.0745V48.2222H92.8889V79.0745H95.1111ZM97.3333 81.2967C96.106 81.2967 95.1111 80.3018 95.1111 79.0745H92.8889C92.8889 81.5291 94.8787 83.519 97.3333 83.519V81.2967ZM113.216 81.2967H97.3333V83.519H113.216V81.2967ZM118.58 87.8479L114.112 81.7511L112.32 83.0646L116.788 89.1614L118.58 87.8479ZM121.255 81.7511L116.788 87.8479L118.58 89.1614L123.048 83.0646L121.255 81.7511ZM137.565 81.2967H122.151V83.519H137.565V81.2967ZM139.788 79.0745C139.788 80.3018 138.793 81.2967 137.565 81.2967V83.519C140.02 83.519 142.01 81.5291 142.01 79.0745H139.788ZM139.788 48.2222V79.0745H142.01V48.2222H139.788ZM137.565 46C138.793 46 139.788 46.9949 139.788 48.2222H142.01C142.01 45.7677 140.02 43.7778 137.565 43.7778V46ZM97.3333 46H137.565V43.7778H97.3333V46Z" fill="#513D5B"/>
<path d="M130.581 60.5673C130.581 67.7082 117.684 74.2006 117.684 74.2006C117.684 74.2006 104.787 67.7082 104.787 60.5673C104.787 53.4263 115.491 50.9992 117.684 60.5673C119.361 50.9992 130.581 53.4263 130.581 60.5673Z" fill="white"/>
</svg>
