<svg width="362" height="92" viewBox="0 0 362 92" fill="none" xmlns="http://www.w3.org/2000/svg">
<path d="M156.386 50.5615C156.267 50.7794 156.059 51.1756 155.762 51.7502C155.485 52.3247 155.098 52.9785 154.603 53.7115C154.127 54.4247 153.553 55.1677 152.879 55.9403C152.206 56.713 151.433 57.4262 150.561 58.08C149.69 58.7139 148.709 59.2389 147.619 59.655C146.55 60.071 145.381 60.279 144.113 60.279C142.983 60.279 141.983 60.071 141.111 59.655C140.24 59.2588 139.497 58.6941 138.882 57.9611C138.268 57.2083 137.803 56.3266 137.486 55.3163C137.169 54.3059 137.01 53.1865 137.01 51.9582C137.01 50.7695 137.179 49.6601 137.515 48.6299C137.852 47.5798 138.308 46.6685 138.882 45.8959C139.477 45.1232 140.16 44.519 140.933 44.0831C141.706 43.6274 142.528 43.3996 143.399 43.3996C144.053 43.3996 144.648 43.5185 145.183 43.7562C145.717 43.9741 146.163 44.2713 146.52 44.6477C146.896 45.0242 147.183 45.4402 147.382 45.8959C147.6 46.3515 147.708 46.8072 147.708 47.2629C147.708 47.6987 147.649 48.1049 147.53 48.4813C147.431 48.8577 147.292 49.1945 147.114 49.4917C146.956 49.769 146.767 49.9969 146.55 50.1752C146.332 50.3336 146.114 50.4129 145.896 50.4129C145.559 50.4129 145.282 50.3039 145.064 50.086C144.866 49.8681 144.766 49.6006 144.766 49.2836C144.766 49.1251 144.796 48.9865 144.856 48.8676C144.935 48.7487 145.014 48.6299 145.093 48.511C145.192 48.3723 145.272 48.2138 145.331 48.0355C145.41 47.8374 145.45 47.5898 145.45 47.2926C145.45 46.8765 145.252 46.5001 144.856 46.1633C144.479 45.8265 143.994 45.6581 143.399 45.6581C142.845 45.6581 142.31 45.8265 141.795 46.1633C141.299 46.5001 140.864 46.9558 140.487 47.5303C140.111 48.085 139.804 48.7487 139.566 49.5214C139.348 50.2742 139.239 51.0766 139.239 51.9285C139.239 52.7408 139.338 53.5134 139.536 54.2464C139.734 54.9795 140.032 55.6332 140.428 56.2078C140.824 56.7625 141.319 57.2083 141.914 57.5451C142.528 57.8818 143.251 58.0502 144.083 58.0502C145.153 58.0502 146.143 57.862 147.055 57.4856C147.966 57.0894 148.798 56.5941 149.551 55.9998C150.304 55.4054 150.967 54.7615 151.542 54.0681C152.117 53.3549 152.602 52.6912 152.998 52.0771C153.414 51.4431 153.731 50.8983 153.949 50.4426C154.187 49.9671 154.326 49.67 154.365 49.5511C154.444 49.353 154.573 49.2044 154.751 49.1053C154.95 48.9865 155.158 48.927 155.376 48.927C155.712 48.927 155.98 49.0459 156.178 49.2836C156.396 49.5214 156.505 49.7888 156.505 50.086C156.505 50.2049 156.465 50.3634 156.386 50.5615Z" fill="#F2ACB9"/>
<path d="M171.274 50.5615C171.056 51.0171 170.779 51.562 170.442 52.1959C170.125 52.8101 169.759 53.454 169.343 54.1276C168.927 54.8012 168.461 55.4747 167.946 56.1483C167.431 56.8021 166.866 57.3965 166.252 57.9314C165.658 58.4465 165.014 58.8625 164.32 59.1795C163.647 59.5163 162.924 59.6847 162.151 59.6847C160.962 59.6847 159.942 59.3182 159.09 58.5852C158.238 57.8521 157.515 56.8913 156.921 55.7026C156.327 54.5139 155.841 53.1667 155.465 51.661C155.108 50.1355 154.831 48.5902 154.633 47.0251C154.435 45.4402 154.296 43.9048 154.217 42.4189C154.157 40.9331 154.127 39.6156 154.127 38.4665C154.127 36.8024 154.177 35.0788 154.276 33.2957C154.395 31.5127 154.573 29.7693 154.811 28.0655C155.049 26.3617 155.346 24.747 155.702 23.2216C156.079 21.6961 156.515 20.3588 157.01 19.2097C157.525 18.0606 158.11 17.1493 158.763 16.4757C159.417 15.8021 160.16 15.4653 160.992 15.4653C161.646 15.4653 162.23 15.6238 162.745 15.9408C163.28 16.238 163.726 16.7333 164.083 17.4267C164.439 18.1201 164.717 19.0215 164.915 20.131C165.113 21.2404 165.212 22.5975 165.212 24.2022C165.212 26.1834 165.004 28.2339 164.588 30.3537C164.172 32.4537 163.607 34.5736 162.894 36.7132C162.181 38.8529 161.339 40.9925 160.368 43.1322C159.397 45.252 158.357 47.3223 157.248 49.3431C157.743 51.8591 158.407 53.8403 159.239 55.2865C160.071 56.713 161.071 57.4262 162.24 57.4262C163.033 57.4262 163.795 57.1191 164.528 56.5049C165.262 55.871 165.935 55.128 166.549 54.2761C167.163 53.4243 167.698 52.5624 168.154 51.6907C168.629 50.7992 168.996 50.086 169.254 49.5511C169.353 49.353 169.491 49.2044 169.67 49.1053C169.848 48.9865 170.046 48.927 170.264 48.927C170.601 48.927 170.868 49.0459 171.066 49.2836C171.284 49.5214 171.393 49.7888 171.393 50.086C171.393 50.2049 171.354 50.3634 171.274 50.5615ZM156.386 38.6151C156.386 39.8831 156.416 41.1015 156.475 42.2703C156.535 43.4392 156.614 44.5586 156.713 45.6284C157.545 44.0237 158.337 42.3199 159.09 40.517C159.843 38.6944 160.507 36.8618 161.081 35.0193C161.656 33.157 162.111 31.3146 162.448 29.4919C162.805 27.6494 162.983 25.8961 162.983 24.2319C162.983 21.8942 162.795 20.2201 162.419 19.2097C162.042 18.1993 161.537 17.6941 160.903 17.6941C160.487 17.6941 160.081 17.9814 159.685 18.5559C159.308 19.1305 158.952 19.913 158.615 20.9036C158.278 21.8942 157.971 23.0631 157.694 24.4102C157.416 25.7574 157.178 27.2037 156.98 28.749C156.802 30.2943 156.653 31.9089 156.535 33.5929C156.435 35.2769 156.386 36.951 156.386 38.6151Z" fill="#F2ACB9"/>
<path d="M182.983 55.5243C182.488 55.5243 182.052 55.4847 181.675 55.4054C181.378 55.9998 181.022 56.5545 180.606 57.0696C180.19 57.5649 179.704 58.0007 179.149 58.3771C178.614 58.7536 178.01 59.0507 177.337 59.2687C176.663 59.4866 175.93 59.5955 175.138 59.5955C174.206 59.5955 173.355 59.4271 172.582 59.0904C171.809 58.7734 171.136 58.3276 170.561 57.7531C169.987 57.1587 169.541 56.4554 169.224 55.6431C168.907 54.8111 168.748 53.8997 168.748 52.9091C168.748 51.6412 168.976 50.5417 169.432 49.6105C169.888 48.6596 170.413 47.877 171.007 47.2629C171.601 46.6289 172.196 46.1633 172.79 45.8661C173.384 45.5492 173.83 45.3907 174.127 45.3907C174.464 45.3907 174.712 45.4798 174.87 45.6581C175.048 45.8364 175.138 46.0742 175.138 46.3713C175.138 46.7081 175.029 46.9657 174.811 47.144C174.613 47.3025 174.355 47.461 174.038 47.6195C173.721 47.778 173.384 48.0058 173.028 48.303C172.671 48.5803 172.334 48.9369 172.017 49.3728C171.72 49.8086 171.472 50.3237 171.274 50.9181C171.076 51.5124 170.977 52.1761 170.977 52.9091C170.977 53.5629 171.076 54.1771 171.274 54.7516C171.472 55.3063 171.76 55.7917 172.136 56.2078C172.513 56.604 172.958 56.921 173.473 57.1587C173.989 57.3767 174.563 57.4856 175.197 57.4856C176.326 57.4856 177.257 57.2281 177.99 56.713C178.743 56.1781 179.318 55.5045 179.714 54.6922C178.545 54.078 177.584 53.2063 176.831 52.0771C176.079 50.9478 175.702 49.6799 175.702 48.2733C175.702 47.144 175.97 46.2228 176.505 45.5095C177.059 44.7963 177.782 44.4397 178.674 44.4397C179.209 44.4397 179.714 44.5685 180.19 44.826C180.665 45.0836 181.081 45.4897 181.438 46.0445C181.814 46.5992 182.111 47.3124 182.329 48.1841C182.547 49.0558 182.656 50.0959 182.656 51.3044C182.656 51.9384 182.577 52.6021 182.418 53.2955C182.537 53.3153 182.656 53.3252 182.775 53.3252C182.894 53.3252 183.023 53.3252 183.161 53.3252C183.835 53.3252 184.439 53.2459 184.974 53.0875C185.509 52.929 185.994 52.6912 186.43 52.3742C186.866 52.0573 187.252 51.6511 187.589 51.1558C187.946 50.6605 188.283 50.086 188.6 49.4322C188.659 49.3134 188.788 49.2044 188.986 49.1053C189.184 48.9865 189.382 48.927 189.58 48.927C189.838 48.927 190.075 49.036 190.293 49.2539C190.531 49.452 190.65 49.7195 190.65 50.0563C190.65 50.2148 190.61 50.3931 190.531 50.5912C190.452 50.7695 190.373 50.9379 190.293 51.0964C189.957 51.6907 189.56 52.2653 189.105 52.82C188.669 53.3549 188.144 53.8304 187.53 54.2464C186.935 54.6427 186.262 54.9596 185.509 55.1974C184.756 55.4351 183.914 55.5441 182.983 55.5243ZM177.901 48.0355C177.901 48.4119 177.951 48.8082 178.05 49.2242C178.149 49.6402 178.298 50.0563 178.496 50.4723C178.714 50.8686 178.971 51.2549 179.268 51.6313C179.585 51.9879 179.952 52.295 180.368 52.5525C180.427 52.1365 180.457 51.7304 180.457 51.3341C180.457 50.7992 180.417 50.2544 180.338 49.6997C180.259 49.145 180.14 48.6398 179.981 48.1841C179.843 47.7086 179.665 47.3322 179.447 47.0548C179.229 46.7577 178.971 46.6091 178.674 46.6091C178.555 46.6091 178.397 46.6982 178.198 46.8765C178 47.0548 177.901 47.4412 177.901 48.0355Z" fill="#F2ACB9"/>
<path d="M198.406 55.4648C197.713 56.5941 196.901 57.4856 195.969 58.1394C195.058 58.7932 194.137 59.1201 193.206 59.1201C192.453 59.1201 191.779 58.9814 191.185 58.704C190.591 58.4267 190.075 58.0403 189.64 57.5451C189.204 57.0299 188.867 56.4158 188.629 55.7026C188.411 54.9894 188.302 54.187 188.302 53.2955C188.302 51.9087 188.431 50.6804 188.689 49.6105C188.966 48.5407 189.263 47.6492 189.58 46.936C189.897 46.2029 190.194 45.6482 190.472 45.2718C190.749 44.8954 190.888 44.7072 190.888 44.7072C190.987 44.5883 191.106 44.4992 191.244 44.4397C191.403 44.3803 191.561 44.3506 191.72 44.3506C192.037 44.3506 192.294 44.4694 192.492 44.7072C192.71 44.9251 192.819 45.1826 192.819 45.4798C192.819 45.5987 192.79 45.7176 192.73 45.8364C192.691 45.9553 192.641 46.0742 192.582 46.193C192.483 46.3713 192.324 46.6487 192.106 47.0251C191.888 47.3817 191.66 47.8572 191.423 48.4516C191.185 49.0459 190.977 49.7492 190.799 50.5615C190.62 51.3539 190.531 52.2653 190.531 53.2955C190.531 54.4644 190.759 55.3559 191.215 55.97C191.69 56.5644 192.354 56.8616 193.206 56.8616C193.562 56.8616 193.968 56.7526 194.424 56.5347C194.9 56.2969 195.355 55.9403 195.791 55.4648C196.247 54.9894 196.643 54.3851 196.98 53.6521C197.317 52.9191 197.535 52.0573 197.634 51.0667L198.079 45.9553C198.119 45.6581 198.248 45.4105 198.466 45.2124C198.684 45.0143 198.941 44.9152 199.238 44.9152C199.575 44.9152 199.843 45.044 200.041 45.3015C200.239 45.5393 200.338 45.8166 200.338 46.1336L199.952 51.0667C199.912 51.4827 199.922 52.0275 199.981 52.7011C200.06 53.3747 200.209 54.0384 200.427 54.6922C200.645 55.346 200.972 55.9106 201.408 56.3861C201.844 56.8417 202.418 57.0696 203.131 57.0696C203.646 57.0696 204.152 56.9408 204.647 56.6832C205.142 56.4059 205.618 56.0493 206.073 55.6134C206.529 55.1776 206.945 54.6922 207.321 54.1573C207.718 53.6026 208.074 53.0478 208.391 52.4931C208.728 51.9384 209.015 51.4134 209.253 50.9181C209.491 50.403 209.689 49.9671 209.847 49.6105C209.946 49.3926 210.085 49.2242 210.263 49.1053C210.442 48.9865 210.64 48.927 210.858 48.927C211.214 48.927 211.492 49.0459 211.69 49.2836C211.888 49.5214 211.987 49.7789 211.987 50.0563C211.987 50.2148 211.957 50.3634 211.898 50.502C211.819 50.6605 211.66 50.9973 211.422 51.5124C211.204 52.0077 210.907 52.5823 210.531 53.236C210.174 53.87 209.738 54.5436 209.223 55.2568C208.708 55.97 208.134 56.6337 207.5 57.2479C206.866 57.8422 206.172 58.3375 205.42 58.7337C204.686 59.1102 203.894 59.2984 203.042 59.2984C201.873 59.2984 200.902 58.9715 200.13 58.3177C199.357 57.6441 198.783 56.6932 198.406 55.4648Z" fill="#F2ACB9"/>
<path d="M233.948 29.0461C233.948 29.3631 233.839 29.6207 233.621 29.8188C233.403 29.9971 233.136 30.0863 232.819 30.0863H217.752V30.4131C217.752 31.6216 217.663 32.9094 217.485 34.2764C217.306 35.6434 217.059 37.0104 216.742 38.3774C216.445 39.7246 216.098 41.042 215.702 42.3298C215.325 43.6175 214.929 44.8062 214.513 45.8959C214.117 46.9855 213.721 47.9365 213.324 48.7487C212.928 49.5412 212.571 50.1355 212.255 50.5318C212.512 51.4431 212.819 52.295 213.176 53.0875C213.532 53.8601 213.929 54.5436 214.364 55.138C214.82 55.7125 215.305 56.1681 215.821 56.5049C216.336 56.8417 216.89 57.0101 217.485 57.0101C218.178 57.0101 218.862 56.7229 219.535 56.1483C220.229 55.554 220.863 54.8606 221.437 54.0681C222.032 53.2559 222.547 52.4436 222.982 51.6313C223.438 50.7992 223.765 50.1355 223.963 49.6402C224.161 49.1648 224.508 48.927 225.003 48.927C225.34 48.927 225.607 49.0459 225.806 49.2836C226.024 49.5214 226.132 49.7789 226.132 50.0563C226.132 50.195 226.103 50.3336 226.043 50.4723C225.984 50.611 225.835 50.928 225.598 51.4233C225.38 51.9186 225.082 52.4931 224.706 53.1469C224.349 53.8007 223.924 54.4941 223.428 55.2271C222.953 55.9403 222.408 56.5941 221.794 57.1884C221.199 57.7828 220.556 58.2781 219.862 58.6743C219.169 59.0705 218.436 59.2687 217.663 59.2687C216.296 59.2687 215.068 58.8229 213.978 57.9314C212.888 57.0399 211.957 55.7917 211.185 54.187C210.432 52.5823 209.857 50.6804 209.461 48.4813C209.065 46.2822 208.867 43.8751 208.867 41.26C208.867 40.6062 208.877 39.8434 208.896 38.9717C208.916 38.0802 208.956 37.1491 209.015 36.1783C209.075 35.1877 209.164 34.1773 209.283 33.1471C209.402 32.0971 209.56 31.0768 209.758 30.0863H199.09C198.773 30.0863 198.505 29.9971 198.287 29.8188C198.069 29.6207 197.96 29.3631 197.96 29.0461C197.96 28.7292 198.069 28.4815 198.287 28.3032C198.505 28.1051 198.773 28.006 199.09 28.006H210.263C210.462 27.2928 210.689 26.639 210.947 26.0447C211.224 25.4503 211.531 24.9353 211.868 24.4994C212.225 24.0635 212.611 23.7267 213.027 23.489C213.463 23.2315 213.938 23.1027 214.454 23.1027C214.949 23.1027 215.375 23.2315 215.731 23.489C216.108 23.7267 216.425 24.0635 216.682 24.4994C216.94 24.9353 217.138 25.4503 217.277 26.0447C217.435 26.639 217.554 27.2928 217.633 28.006H232.819C233.136 28.006 233.403 28.1051 233.621 28.3032C233.839 28.4815 233.948 28.7292 233.948 29.0461ZM211.571 47.56C212.165 46.2525 212.7 44.8459 213.176 43.3402C213.671 41.8147 214.087 40.2793 214.424 38.734C214.78 37.1887 215.048 35.6731 215.226 34.1872C215.424 32.7014 215.523 31.3344 215.523 30.0863H212.017C211.739 31.3146 211.512 32.8401 211.333 34.6627C211.175 36.4656 211.096 38.6647 211.096 41.26C211.096 42.7062 211.135 43.9246 211.214 44.9152C211.294 45.886 211.413 46.7676 211.571 47.56ZM214.335 25.3315C214.156 25.3315 213.899 25.5296 213.562 25.9258C213.225 26.3022 212.888 26.9957 212.552 28.006H215.405C215.305 27.174 215.157 26.5202 214.959 26.0447C214.78 25.5692 214.572 25.3315 214.335 25.3315Z" fill="#F2ACB9"/>
<path d="M240.753 47.7978C240.635 48.1148 240.486 48.4714 240.308 48.8676C240.149 49.2638 239.961 49.6799 239.743 50.1157C239.565 50.4525 239.377 50.72 239.178 50.9181C239 51.0964 238.762 51.1855 238.465 51.1855C238.128 51.1855 237.861 51.0865 237.663 50.8884C237.465 50.6704 237.366 50.4228 237.366 50.1454C237.366 50.0464 237.376 49.9671 237.395 49.9077C237.415 49.8285 237.465 49.7096 237.544 49.5511C238.059 48.5605 238.435 47.6987 238.673 46.9657C238.931 46.2128 239.139 45.4303 239.297 44.618C239.159 44.1624 239.06 43.776 239 43.459C238.941 43.1421 238.911 42.8152 238.911 42.4784C238.911 41.8246 239.05 41.2996 239.327 40.9034C239.604 40.4873 239.991 40.2793 240.486 40.2793C240.942 40.2793 241.298 40.4774 241.556 40.8736C241.833 41.2699 241.972 41.7553 241.972 42.3298C241.972 42.6468 241.942 42.9638 241.883 43.2807C241.823 43.5977 241.744 43.994 241.645 44.4694C242.101 45.5987 242.556 46.5992 243.012 47.4709C243.468 48.3426 243.874 49.145 244.23 49.878C244.587 50.5912 244.874 51.2648 245.092 51.8988C245.33 52.5327 245.449 53.1667 245.449 53.8007C245.449 54.6328 245.28 55.4252 244.944 56.1781C244.607 56.9309 244.052 57.5649 243.279 58.08C243.378 58.0998 243.478 58.1097 243.577 58.1097C243.676 58.1097 243.775 58.1097 243.874 58.1097C245.003 58.1097 246.043 57.8521 246.994 57.337C247.945 56.8219 248.797 56.1582 249.55 55.346C250.322 54.5139 251.006 53.6026 251.6 52.612C252.195 51.6016 252.71 50.6011 253.146 49.6105C253.344 49.1549 253.621 48.927 253.978 48.927C254.314 48.927 254.572 49.0459 254.75 49.2836C254.948 49.5214 255.047 49.7789 255.047 50.0563C255.047 50.2148 255.018 50.3634 254.958 50.502C254.74 51.037 254.453 51.6511 254.096 52.3445C253.76 53.0181 253.344 53.7214 252.848 54.4545C252.373 55.1677 251.818 55.871 251.184 56.5644C250.55 57.2578 249.837 57.8818 249.045 58.4366C248.272 58.9715 247.42 59.3974 246.489 59.7144C245.558 60.0512 244.537 60.2196 243.428 60.2196C242.101 60.2196 240.862 59.9819 239.713 59.5064C238.584 59.0507 237.663 58.288 236.95 57.2182C236.831 57.0399 236.771 56.8517 236.771 56.6535C236.771 56.3564 236.88 56.0988 237.098 55.8809C237.336 55.6431 237.603 55.5243 237.901 55.5243C238.218 55.5243 238.485 55.6332 238.703 55.8512C238.723 55.8908 238.792 55.9601 238.911 56.0592C239.03 56.1384 239.168 56.2375 239.327 56.3564C239.505 56.4554 239.703 56.5446 239.921 56.6238C240.159 56.7031 240.397 56.7427 240.635 56.7427C241.11 56.7427 241.506 56.6436 241.823 56.4455C242.16 56.2474 242.427 56.0097 242.626 55.7323C242.824 55.4351 242.962 55.128 243.042 54.8111C243.141 54.4743 243.19 54.187 243.19 53.9493C243.19 53.454 243.111 52.9587 242.952 52.4634C242.794 51.9681 242.586 51.4728 242.328 50.9775C242.091 50.4822 241.823 49.977 241.526 49.4619C241.249 48.927 240.991 48.3723 240.753 47.7978Z" fill="#F2ACB9"/>
<path d="M276.979 29.0461C276.979 29.3631 276.87 29.6207 276.652 29.8188C276.434 29.9971 276.167 30.0863 275.85 30.0863H260.783V30.4131C260.783 31.6216 260.694 32.9094 260.515 34.2764C260.337 35.6434 260.089 37.0104 259.772 38.3774C259.475 39.7246 259.129 41.042 258.732 42.3298C258.356 43.6175 257.96 44.8062 257.544 45.8959C257.147 46.9855 256.751 47.9365 256.355 48.7487C255.959 49.5412 255.602 50.1355 255.285 50.5318C255.543 51.4431 255.85 52.295 256.206 53.0875C256.563 53.8601 256.959 54.5436 257.395 55.138C257.851 55.7125 258.336 56.1681 258.851 56.5049C259.366 56.8417 259.921 57.0101 260.515 57.0101C261.209 57.0101 261.892 56.7229 262.566 56.1483C263.259 55.554 263.893 54.8606 264.468 54.0681C265.062 53.2559 265.577 52.4436 266.013 51.6313C266.469 50.7992 266.796 50.1355 266.994 49.6402C267.192 49.1648 267.539 48.927 268.034 48.927C268.371 48.927 268.638 49.0459 268.836 49.2836C269.054 49.5214 269.163 49.7789 269.163 50.0563C269.163 50.195 269.133 50.3336 269.074 50.4723C269.015 50.611 268.866 50.928 268.628 51.4233C268.41 51.9186 268.113 52.4931 267.737 53.1469C267.38 53.8007 266.954 54.4941 266.459 55.2271C265.983 55.9403 265.439 56.5941 264.824 57.1884C264.23 57.7828 263.586 58.2781 262.893 58.6743C262.199 59.0705 261.466 59.2687 260.694 59.2687C259.327 59.2687 258.098 58.8229 257.009 57.9314C255.919 57.0399 254.988 55.7917 254.215 54.187C253.463 52.5823 252.888 50.6804 252.492 48.4813C252.096 46.2822 251.897 43.8751 251.897 41.26C251.897 40.6062 251.907 39.8434 251.927 38.9717C251.947 38.0802 251.987 37.1491 252.046 36.1783C252.105 35.1877 252.195 34.1773 252.313 33.1471C252.432 32.0971 252.591 31.0768 252.789 30.0863H242.12C241.803 30.0863 241.536 29.9971 241.318 29.8188C241.1 29.6207 240.991 29.3631 240.991 29.0461C240.991 28.7292 241.1 28.4815 241.318 28.3032C241.536 28.1051 241.803 28.006 242.12 28.006H253.294C253.492 27.2928 253.72 26.639 253.978 26.0447C254.255 25.4503 254.562 24.9353 254.899 24.4994C255.255 24.0635 255.642 23.7267 256.058 23.489C256.494 23.2315 256.969 23.1027 257.484 23.1027C257.98 23.1027 258.405 23.2315 258.762 23.489C259.139 23.7267 259.456 24.0635 259.713 24.4994C259.971 24.9353 260.169 25.4503 260.307 26.0447C260.466 26.639 260.585 27.2928 260.664 28.006H275.85C276.167 28.006 276.434 28.1051 276.652 28.3032C276.87 28.4815 276.979 28.7292 276.979 29.0461ZM254.602 47.56C255.196 46.2525 255.731 44.8459 256.206 43.3402C256.702 41.8147 257.118 40.2793 257.455 38.734C257.811 37.1887 258.079 35.6731 258.257 34.1872C258.455 32.7014 258.554 31.3344 258.554 30.0863H255.047C254.77 31.3146 254.542 32.8401 254.364 34.6627C254.205 36.4656 254.126 38.6647 254.126 41.26C254.126 42.7062 254.166 43.9246 254.245 44.9152C254.324 45.886 254.443 46.7676 254.602 47.56ZM257.365 25.3315C257.187 25.3315 256.93 25.5296 256.593 25.9258C256.256 26.3022 255.919 26.9957 255.582 28.006H258.435C258.336 27.174 258.188 26.5202 257.989 26.0447C257.811 25.5692 257.603 25.3315 257.365 25.3315Z" fill="#F2ACB9"/>
<path d="M280.812 55.5243C280.317 55.5243 279.881 55.4847 279.505 55.4054C279.208 55.9998 278.851 56.5545 278.435 57.0696C278.019 57.5649 277.534 58.0007 276.979 58.3771C276.444 58.7536 275.84 59.0507 275.166 59.2687C274.492 59.4866 273.759 59.5955 272.967 59.5955C272.036 59.5955 271.184 59.4271 270.411 59.0904C269.639 58.7734 268.965 58.3276 268.391 57.7531C267.816 57.1587 267.37 56.4554 267.053 55.6431C266.736 54.8111 266.578 53.8997 266.578 52.9091C266.578 51.6412 266.806 50.5417 267.261 49.6105C267.717 48.6596 268.242 47.877 268.836 47.2629C269.431 46.6289 270.025 46.1633 270.619 45.8661C271.214 45.5492 271.659 45.3907 271.957 45.3907C272.293 45.3907 272.541 45.4798 272.7 45.6581C272.878 45.8364 272.967 46.0742 272.967 46.3713C272.967 46.7081 272.858 46.9657 272.64 47.144C272.442 47.3025 272.184 47.461 271.867 47.6195C271.55 47.778 271.214 48.0058 270.857 48.303C270.5 48.5803 270.164 48.9369 269.847 49.3728C269.549 49.8086 269.302 50.3237 269.104 50.9181C268.906 51.5124 268.807 52.1761 268.807 52.9091C268.807 53.5629 268.906 54.1771 269.104 54.7516C269.302 55.3063 269.589 55.7917 269.966 56.2078C270.342 56.604 270.788 56.921 271.303 57.1587C271.818 57.3767 272.392 57.4856 273.026 57.4856C274.156 57.4856 275.087 57.2281 275.82 56.713C276.573 56.1781 277.147 55.5045 277.543 54.6922C276.375 54.078 275.414 53.2063 274.661 52.0771C273.908 50.9478 273.532 49.6799 273.532 48.2733C273.532 47.144 273.799 46.2228 274.334 45.5095C274.889 44.7963 275.612 44.4397 276.503 44.4397C277.038 44.4397 277.543 44.5685 278.019 44.826C278.494 45.0836 278.91 45.4897 279.267 46.0445C279.643 46.5992 279.941 47.3124 280.159 48.1841C280.376 49.0558 280.485 50.0959 280.485 51.3044C280.485 51.9384 280.406 52.6021 280.248 53.2955C280.367 53.3153 280.485 53.3252 280.604 53.3252C280.723 53.3252 280.852 53.3252 280.991 53.3252C281.664 53.3252 282.268 53.2459 282.803 53.0875C283.338 52.929 283.824 52.6912 284.26 52.3742C284.695 52.0573 285.082 51.6511 285.419 51.1558C285.775 50.6605 286.112 50.086 286.429 49.4322C286.488 49.3134 286.617 49.2044 286.815 49.1053C287.013 48.9865 287.211 48.927 287.41 48.927C287.667 48.927 287.905 49.036 288.123 49.2539C288.361 49.452 288.479 49.7195 288.479 50.0563C288.479 50.2148 288.44 50.3931 288.361 50.5912C288.281 50.7695 288.202 50.9379 288.123 51.0964C287.786 51.6907 287.39 52.2653 286.934 52.82C286.498 53.3549 285.973 53.8304 285.359 54.2464C284.765 54.6427 284.091 54.9596 283.338 55.1974C282.585 55.4351 281.743 55.5441 280.812 55.5243ZM275.731 48.0355C275.731 48.4119 275.78 48.8082 275.879 49.2242C275.978 49.6402 276.127 50.0563 276.325 50.4723C276.543 50.8686 276.801 51.2549 277.098 51.6313C277.415 51.9879 277.781 52.295 278.197 52.5525C278.257 52.1365 278.286 51.7304 278.286 51.3341C278.286 50.7992 278.247 50.2544 278.168 49.6997C278.088 49.145 277.969 48.6398 277.811 48.1841C277.672 47.7086 277.494 47.3322 277.276 47.0548C277.058 46.7577 276.801 46.6091 276.503 46.6091C276.384 46.6091 276.226 46.6982 276.028 46.8765C275.83 47.0548 275.731 47.4412 275.731 48.0355Z" fill="#F2ACB9"/>
<path d="M289.49 46.5794C289.411 47.1143 289.312 47.6195 289.193 48.0949C289.074 48.5506 288.955 48.9567 288.836 49.3134C288.737 49.6502 288.648 49.9275 288.569 50.1454C288.489 50.3634 288.44 50.4822 288.42 50.502C288.222 50.9577 287.875 51.1855 287.38 51.1855C287.103 51.1855 286.845 51.0865 286.607 50.8884C286.369 50.6704 286.251 50.403 286.251 50.086C286.251 49.9671 286.27 49.878 286.31 49.8186C286.35 49.7591 286.409 49.6402 286.488 49.4619C286.568 49.2836 286.667 48.9865 286.786 48.5704C286.904 48.1544 287.053 47.5105 287.231 46.6388C286.895 46.6388 286.548 46.6289 286.191 46.6091C285.835 46.5893 285.508 46.5199 285.211 46.4011C284.894 46.2822 284.636 46.094 284.438 45.8364C284.24 45.5789 284.141 45.2223 284.141 44.7666C284.141 44.4298 284.24 43.9741 284.438 43.3996C284.616 42.8251 284.864 42.2604 285.181 41.7057C285.498 41.151 285.854 40.6755 286.251 40.2793C286.647 39.8632 287.043 39.6552 287.439 39.6552C287.895 39.6552 288.261 39.8236 288.539 40.1604C288.836 40.4972 289.064 40.9133 289.222 41.4085C289.381 41.884 289.49 42.3892 289.549 42.9241C289.628 43.459 289.668 43.9246 289.668 44.3208C290.005 44.3208 290.332 44.3208 290.649 44.3208C290.986 44.301 291.303 44.2911 291.6 44.2911C292.729 44.2911 293.591 44.5388 294.185 45.0341C294.779 45.5294 295.077 46.3416 295.077 47.4709C295.077 47.9265 295.047 48.402 294.988 48.8973C294.928 49.3926 294.859 49.9077 294.779 50.4426C294.7 50.9577 294.631 51.4728 294.571 51.9879C294.512 52.503 294.482 53.0082 294.482 53.5035C294.482 54.2167 294.581 54.8111 294.779 55.2865C294.978 55.7422 295.225 56.1087 295.522 56.3861C295.82 56.6634 296.137 56.8616 296.473 56.9804C296.81 57.0795 297.117 57.129 297.395 57.129C298.247 57.129 299.049 56.8517 299.802 56.2969C300.555 55.7422 301.248 55.0785 301.882 54.3059C302.516 53.5134 303.081 52.6813 303.576 51.8096C304.091 50.9379 304.517 50.1752 304.854 49.5214C304.953 49.3431 305.091 49.2044 305.27 49.1053C305.448 49.0063 305.636 48.9567 305.834 48.9567C306.191 48.9567 306.468 49.0756 306.666 49.3134C306.865 49.5313 306.964 49.7789 306.964 50.0563C306.964 50.2544 306.924 50.4327 306.845 50.5912C306.389 51.4035 305.854 52.3247 305.24 53.3549C304.646 54.3653 303.962 55.3163 303.189 56.2078C302.417 57.0993 301.545 57.8521 300.574 58.4663C299.623 59.0804 298.573 59.3875 297.424 59.3875C296.711 59.3875 296.038 59.2488 295.404 58.9715C294.77 58.7139 294.215 58.3375 293.739 57.8422C293.284 57.3271 292.917 56.7031 292.64 55.97C292.362 55.2172 292.224 54.3752 292.224 53.4441C292.224 52.4535 292.323 51.4728 292.521 50.502C292.719 49.5115 292.818 48.5704 292.818 47.6789C292.818 47.3025 292.729 47.0251 292.551 46.8468C292.392 46.6487 292.026 46.5496 291.451 46.5496C291.174 46.5496 290.867 46.5496 290.53 46.5496C290.213 46.5496 289.866 46.5595 289.49 46.5794ZM287.499 44.3803C287.499 44.2416 287.489 44.0633 287.469 43.8454C287.469 43.6076 287.449 43.3798 287.41 43.1619C287.39 42.9439 287.35 42.7557 287.291 42.5972C287.251 42.4387 287.202 42.3595 287.142 42.3595C287.083 42.3595 287.003 42.4387 286.904 42.5972C286.825 42.7359 286.736 42.9142 286.637 43.1322C286.538 43.3303 286.449 43.5482 286.369 43.7859C286.29 44.0237 286.231 44.2218 286.191 44.3803H287.499Z" fill="#F2ACB9"/>
<path d="M327.825 50.502C327.746 50.6605 327.577 50.9973 327.32 51.5124C327.082 52.0077 326.765 52.5823 326.369 53.236C325.993 53.8898 325.547 54.5733 325.032 55.2865C324.517 55.9998 323.942 56.6535 323.308 57.2479C322.674 57.8422 321.991 58.3375 321.258 58.7337C320.525 59.1102 319.752 59.2984 318.94 59.2984C317.791 59.2984 316.82 58.9319 316.027 58.1988C315.255 57.4658 314.69 56.5446 314.333 55.4351C313.66 56.5644 312.858 57.4658 311.926 58.1394C310.995 58.7932 310.064 59.1201 309.133 59.1201C308.4 59.1201 307.736 58.9913 307.142 58.7337C306.548 58.4564 306.042 58.08 305.626 57.6045C305.21 57.1092 304.883 56.5347 304.646 55.8809C304.428 55.2271 304.319 54.5139 304.319 53.7412C304.319 52.1959 304.576 50.8388 305.091 49.67C305.626 48.4813 306.3 47.4907 307.112 46.6982C307.924 45.9058 308.816 45.3114 309.787 44.9152C310.777 44.519 311.728 44.3208 312.64 44.3208C313.254 44.3208 313.818 44.41 314.333 44.5883C314.849 44.7468 315.284 44.9251 315.641 45.1232C316.017 45.3213 316.305 45.5095 316.503 45.6878C316.701 45.8463 316.81 45.9355 316.83 45.9553C317.048 46.2129 317.157 46.4803 317.157 46.7577C317.157 47.0548 317.048 47.3223 316.83 47.56C316.612 47.778 316.354 47.8869 316.057 47.8869C315.74 47.8869 315.473 47.778 315.255 47.56C315.215 47.5204 315.126 47.4511 314.987 47.352C314.849 47.2331 314.66 47.1143 314.423 46.9954C314.185 46.8765 313.898 46.7775 313.561 46.6982C313.244 46.5992 312.877 46.5496 312.461 46.5496C311.847 46.5496 311.193 46.6883 310.5 46.9657C309.807 47.243 309.173 47.6789 308.598 48.2733C308.023 48.8478 307.538 49.5808 307.142 50.4723C306.765 51.344 306.577 52.3841 306.577 53.5927C306.577 53.9691 306.617 54.3554 306.696 54.7516C306.775 55.128 306.914 55.4747 307.112 55.7917C307.31 56.1087 307.578 56.3663 307.915 56.5644C308.251 56.7625 308.667 56.8616 309.163 56.8616C309.519 56.8616 309.925 56.7427 310.381 56.5049C310.857 56.2672 311.302 55.9007 311.718 55.4054C312.154 54.9101 312.541 54.2861 312.877 53.5332C313.234 52.7804 313.482 51.8889 313.62 50.8587C313.66 50.5813 313.789 50.3535 314.007 50.1752C314.225 49.977 314.482 49.878 314.779 49.878C315.057 49.878 315.294 49.9869 315.492 50.2049C315.71 50.4228 315.829 50.6704 315.849 50.9478C315.869 51.3242 315.908 51.8591 315.968 52.5525C316.027 53.2261 316.156 53.8997 316.354 54.5733C316.572 55.2469 316.889 55.8314 317.305 56.3266C317.721 56.8219 318.296 57.0696 319.029 57.0696C319.504 57.0696 319.97 56.9408 320.426 56.6832C320.901 56.4257 321.357 56.0889 321.793 55.6729C322.248 55.237 322.674 54.7516 323.07 54.2167C323.486 53.662 323.863 53.1073 324.2 52.5525C324.536 51.9978 324.834 51.4629 325.091 50.9478C325.349 50.4327 325.567 49.9869 325.745 49.6105C325.844 49.3926 325.983 49.2242 326.161 49.1053C326.359 48.9865 326.567 48.927 326.785 48.927C327.122 48.927 327.389 49.0558 327.587 49.3134C327.805 49.5511 327.914 49.8086 327.914 50.086C327.914 50.2247 327.885 50.3634 327.825 50.502Z" fill="#F2ACB9"/>
<path d="M336.532 61.7055C340.257 56.8517 342.842 52.82 344.289 49.6105C344.388 49.3926 344.516 49.2341 344.675 49.1351C344.853 49.0162 345.051 48.9567 345.269 48.9567C345.606 48.9567 345.883 49.0756 346.101 49.3134C346.319 49.5313 346.428 49.7888 346.428 50.086C346.428 50.2247 346.398 50.3634 346.339 50.502C345.467 52.4832 344.229 54.6922 342.624 57.129C341.02 59.5658 338.989 62.3196 336.532 65.3904C336.532 66.6385 336.542 67.8867 336.562 69.1348C336.582 70.3829 336.592 71.7499 336.592 73.2358C336.592 74.7217 336.552 76.1877 336.473 77.634C336.413 79.1 336.295 80.4868 336.116 81.7944C335.938 83.1218 335.69 84.3402 335.373 85.4496C335.076 86.5789 334.68 87.5496 334.185 88.3619C333.709 89.194 333.125 89.8379 332.431 90.2935C331.758 90.769 330.955 91.0067 330.024 91.0067C328.697 91.0067 327.677 90.5016 326.963 89.4912C326.25 88.4808 325.894 87.0444 325.894 85.1822C325.894 84.1916 325.983 83.1118 326.161 81.943C326.359 80.7939 326.636 79.6052 326.993 78.3769C327.35 77.1486 327.776 75.9004 328.271 74.6325C328.786 73.3844 329.351 72.166 329.965 70.9773C330.579 69.7886 331.243 68.6494 331.956 67.5598C332.689 66.4702 333.462 65.4796 334.274 64.5881C334.294 63.2012 334.304 61.8243 334.304 60.4573C334.323 59.0904 334.353 57.8323 334.393 56.6832C333.798 57.4361 333.085 58.0304 332.253 58.4663C331.441 58.9021 330.628 59.1201 329.816 59.1201C329.123 59.1201 328.489 58.9913 327.914 58.7337C327.36 58.4564 326.884 58.08 326.488 57.6045C326.092 57.1092 325.785 56.5347 325.567 55.8809C325.349 55.2271 325.24 54.5139 325.24 53.7412C325.24 52.1959 325.497 50.8388 326.012 49.67C326.547 48.4813 327.221 47.4907 328.033 46.6982C328.845 45.9058 329.737 45.3114 330.708 44.9152C331.698 44.519 332.649 44.3208 333.561 44.3208C334.175 44.3208 334.739 44.4001 335.254 44.5586C335.77 44.7171 336.205 44.8954 336.562 45.0935C336.938 45.2916 337.226 45.4798 337.424 45.6581C337.622 45.8364 337.731 45.9355 337.751 45.9553C337.969 46.193 338.078 46.4605 338.078 46.7577C338.078 47.0548 337.969 47.3223 337.751 47.56C337.533 47.778 337.275 47.8869 336.978 47.8869C336.701 47.8869 336.433 47.778 336.176 47.56C336.096 47.5006 335.988 47.4214 335.849 47.3223C335.73 47.2034 335.562 47.0846 335.344 46.9657C335.146 46.8468 334.898 46.7478 334.601 46.6685C334.323 46.5893 333.987 46.5496 333.59 46.5496C332.996 46.5496 332.342 46.6883 331.629 46.9657C330.916 47.2232 330.252 47.6393 329.638 48.2138C329.024 48.7883 328.509 49.5313 328.093 50.4426C327.677 51.3341 327.469 52.4139 327.469 53.6818C327.469 54.6328 327.677 55.4054 328.093 55.9998C328.509 56.5743 329.153 56.8616 330.024 56.8616C330.44 56.8616 330.876 56.7427 331.332 56.5049C331.807 56.2672 332.263 55.9007 332.699 55.4054C333.135 54.9101 333.511 54.2861 333.828 53.5332C334.165 52.7804 334.403 51.8889 334.541 50.8587C334.581 50.5813 334.71 50.3535 334.928 50.1752C335.146 49.977 335.403 49.878 335.7 49.878C336.037 49.878 336.295 49.9969 336.473 50.2346C336.671 50.4723 336.77 50.7398 336.77 51.037C336.77 51.0568 336.76 51.3638 336.74 51.9582C336.721 52.5327 336.701 53.3054 336.681 54.2761C336.661 55.2469 336.631 56.3762 336.592 57.6639C336.572 58.9319 336.552 60.279 336.532 61.7055ZM334.274 68.2136C333.343 69.5013 332.501 70.898 331.748 72.4037C330.995 73.9292 330.351 75.4646 329.816 77.0099C329.281 78.5552 328.865 80.051 328.568 81.4972C328.291 82.9633 328.152 84.2708 328.152 85.4199C328.152 86.1529 328.211 86.7374 328.33 87.1732C328.469 87.6091 328.628 87.9459 328.806 88.1836C329.004 88.4213 329.212 88.5798 329.43 88.6591C329.668 88.7383 329.886 88.7779 330.084 88.7779C330.698 88.7779 331.233 88.5303 331.688 88.035C332.144 87.5397 332.53 86.876 332.847 86.044C333.164 85.2317 333.422 84.2906 333.62 83.2208C333.818 82.151 333.967 81.0415 334.066 79.8925C334.165 78.7632 334.234 77.634 334.274 76.5047C334.313 75.3754 334.333 74.3353 334.333 73.3844C334.333 72.5325 334.333 71.6806 334.333 70.8287C334.333 69.9768 334.313 69.1051 334.274 68.2136Z" fill="#F2ACB9"/>
<path d="M347.884 55.5243C348.3 56.0988 348.835 56.5644 349.489 56.921C350.143 57.2578 350.945 57.4262 351.896 57.4262C352.867 57.4262 353.749 57.1983 354.541 56.7427C355.333 56.2672 356.057 55.653 356.71 54.9002C357.364 54.1474 357.949 53.3054 358.464 52.3742C358.979 51.4431 359.444 50.512 359.86 49.5808C359.959 49.3629 360.098 49.2044 360.276 49.1053C360.455 48.9865 360.653 48.927 360.871 48.927C361.208 48.927 361.475 49.0459 361.673 49.2836C361.891 49.5214 362 49.7789 362 50.0563C362 50.1553 361.99 50.2445 361.97 50.3237C361.951 50.3832 361.921 50.4525 361.881 50.5318C360.514 53.5431 359.018 55.8115 357.394 57.337C355.789 58.8625 353.966 59.6451 351.926 59.6847C350.618 59.6847 349.489 59.4271 348.538 58.912C347.587 58.4168 346.805 57.7729 346.19 56.9804C345.576 56.1681 345.121 55.2568 344.823 54.2464C344.526 53.236 344.378 52.2257 344.378 51.2153C344.378 50.2049 344.497 49.2737 344.734 48.4218C344.992 47.5699 345.348 46.827 345.804 46.193C346.28 45.5591 346.834 45.0638 347.468 44.7072C348.122 44.3506 348.835 44.1723 349.608 44.1723C350.064 44.1723 350.509 44.2713 350.945 44.4694C351.401 44.6477 351.807 44.9152 352.164 45.2718C352.52 45.6086 352.807 46.0246 353.025 46.5199C353.243 47.0152 353.352 47.5798 353.352 48.2138C353.352 49.0261 353.214 49.7888 352.936 50.502C352.659 51.2153 352.273 51.8789 351.777 52.4931C351.302 53.1073 350.727 53.6719 350.054 54.187C349.38 54.7021 348.657 55.1479 347.884 55.5243ZM346.993 53.5927C347.607 53.3351 348.162 53.0082 348.657 52.612C349.172 52.2157 349.608 51.7799 349.965 51.3044C350.321 50.8289 350.599 50.3336 350.797 49.8186C350.995 49.2836 351.094 48.7487 351.094 48.2138C351.094 47.6195 350.945 47.1737 350.648 46.8765C350.351 46.5596 350.004 46.4011 349.608 46.4011C349.073 46.4011 348.617 46.5496 348.241 46.8468C347.865 47.144 347.557 47.5303 347.32 48.0058C347.082 48.4813 346.904 49.0162 346.785 49.6105C346.686 50.1851 346.636 50.7596 346.636 51.3341C346.636 51.6907 346.666 52.0672 346.725 52.4634C346.805 52.8596 346.894 53.236 346.993 53.5927Z" fill="#F2ACB9"/>
<path fill-rule="evenodd" clip-rule="evenodd" d="M22.1816 28.9561C21.2827 28.9561 20.554 29.6848 20.554 30.5837V47.4133C20.554 48.3122 21.2827 49.0409 22.1816 49.0409H30.8387L33.2298 52.3047L35.6209 49.0409H44.0269C44.9258 49.0409 45.6545 48.3122 45.6545 47.4133V30.5837C45.6545 29.6848 44.9258 28.9561 44.0269 28.9561H22.1816Z" fill="#F2ACB9"/>
<path d="M30.8387 49.0409L31.2763 48.7203L31.1138 48.4984H30.8387V49.0409ZM33.2298 52.3047L32.7921 52.6253L33.2298 53.2227L33.6674 52.6253L33.2298 52.3047ZM35.6209 49.0409V48.4984H35.3458L35.1833 48.7203L35.6209 49.0409ZM21.0965 30.5837C21.0965 29.9844 21.5823 29.4986 22.1816 29.4986V28.4135C20.983 28.4135 20.0114 29.3851 20.0114 30.5837H21.0965ZM21.0965 47.4133V30.5837H20.0114V47.4133H21.0965ZM22.1816 48.4984C21.5823 48.4984 21.0965 48.0126 21.0965 47.4133H20.0114C20.0114 48.6118 20.983 49.5834 22.1816 49.5834V48.4984ZM30.8387 48.4984H22.1816V49.5834H30.8387V48.4984ZM33.6674 51.984L31.2763 48.7203L30.401 49.3615L32.7921 52.6253L33.6674 51.984ZM35.1833 48.7203L32.7921 51.984L33.6674 52.6253L36.0586 49.3615L35.1833 48.7203ZM44.0269 48.4984H35.6209V49.5834H44.0269V48.4984ZM45.112 47.4133C45.112 48.0126 44.6262 48.4984 44.0269 48.4984V49.5834C45.2254 49.5834 46.197 48.6118 46.197 47.4133H45.112ZM45.112 30.5837V47.4133H46.197V30.5837H45.112ZM44.0269 29.4986C44.6262 29.4986 45.112 29.9844 45.112 30.5837H46.197C46.197 29.3851 45.2254 28.4135 44.0269 28.4135V29.4986ZM22.1816 29.4986H44.0269V28.4135H22.1816V29.4986Z" fill="#513D5B"/>
<path d="M40.1324 37.3493C40.1324 41.1721 33.2298 44.6476 33.2298 44.6476C33.2298 44.6476 26.3271 41.1721 26.3271 37.3493C26.3271 33.5266 32.0563 32.2273 33.2298 37.3494C34.1271 32.2273 40.1324 33.5266 40.1324 37.3493Z" fill="white"/>
<path fill-rule="evenodd" clip-rule="evenodd" d="M22.1816 28.9561C21.2827 28.9561 20.554 29.6848 20.554 30.5837V47.4133C20.554 48.3122 21.2827 49.0409 22.1816 49.0409H30.8387L33.2298 52.3047L35.6209 49.0409H44.0269C44.9258 49.0409 45.6545 48.3122 45.6545 47.4133V30.5837C45.6545 29.6848 44.9258 28.9561 44.0269 28.9561H22.1816Z" fill="#F2ACB9"/>
<path d="M30.8387 49.0409L31.2763 48.7203L31.1138 48.4984H30.8387V49.0409ZM33.2298 52.3047L32.7921 52.6253L33.2298 53.2227L33.6674 52.6253L33.2298 52.3047ZM35.6209 49.0409V48.4984H35.3458L35.1833 48.7203L35.6209 49.0409ZM21.0965 30.5837C21.0965 29.9844 21.5823 29.4986 22.1816 29.4986V28.4135C20.983 28.4135 20.0114 29.3851 20.0114 30.5837H21.0965ZM21.0965 47.4133V30.5837H20.0114V47.4133H21.0965ZM22.1816 48.4984C21.5823 48.4984 21.0965 48.0126 21.0965 47.4133H20.0114C20.0114 48.6118 20.983 49.5834 22.1816 49.5834V48.4984ZM30.8387 48.4984H22.1816V49.5834H30.8387V48.4984ZM33.6674 51.984L31.2763 48.7203L30.401 49.3615L32.7921 52.6253L33.6674 51.984ZM35.1833 48.7203L32.7921 51.984L33.6674 52.6253L36.0586 49.3615L35.1833 48.7203ZM44.0269 48.4984H35.6209V49.5834H44.0269V48.4984ZM45.112 47.4133C45.112 48.0126 44.6262 48.4984 44.0269 48.4984V49.5834C45.2254 49.5834 46.197 48.6118 46.197 47.4133H45.112ZM45.112 30.5837V47.4133H46.197V30.5837H45.112ZM44.0269 29.4986C44.6262 29.4986 45.112 29.9844 45.112 30.5837H46.197C46.197 29.3851 45.2254 28.4135 44.0269 28.4135V29.4986ZM22.1816 29.4986H44.0269V28.4135H22.1816V29.4986Z" fill="#513D5B"/>
<path d="M40.1325 37.3493C40.1325 41.1721 33.2298 44.6476 33.2298 44.6476C33.2298 44.6476 26.3271 41.1721 26.3271 37.3493C26.3271 33.5266 32.0563 32.2273 33.2298 37.3494C34.1271 32.2273 40.1325 33.5266 40.1325 37.3493Z" fill="white"/>
<path fill-rule="evenodd" clip-rule="evenodd" d="M27.1686 15.5069C26.2743 15.5977 25.6229 16.3964 25.7138 17.2907L27.4141 34.0341C27.5049 34.9284 28.3035 35.5798 29.1978 35.4889L37.8106 34.6139L40.5191 37.6191L42.5682 34.1305L50.9314 33.2808C51.8257 33.1899 52.477 32.3913 52.3862 31.497L50.6858 14.7535C50.595 13.8592 49.7964 13.2079 48.9021 13.2988L27.1686 15.5069Z" fill="#F2ACB9"/>
<path d="M25.7138 17.2907L25.174 17.3455L25.7138 17.2907ZM27.4141 34.0341L27.9539 33.9793L27.4141 34.0341ZM37.8106 34.6139L38.2136 34.2506L38.0294 34.0463L37.7557 34.0741L37.8106 34.6139ZM40.5191 37.6191L40.1161 37.9823L40.6118 38.5324L40.9869 37.8939L40.5191 37.6191ZM42.5682 34.1305L42.5133 33.5907L42.2397 33.6185L42.1004 33.8557L42.5682 34.1305ZM50.9314 33.2808L50.9862 33.8206L50.9314 33.2808ZM26.2535 17.2358C26.193 16.6396 26.6272 16.1072 27.2234 16.0466L27.1138 14.9671C25.9214 15.0883 25.0529 16.1531 25.174 17.3455L26.2535 17.2358ZM27.9539 33.9793L26.2535 17.2358L25.174 17.3455L26.8744 34.089L27.9539 33.9793ZM29.143 34.9491C28.5468 35.0097 28.0144 34.5755 27.9539 33.9793L26.8744 34.089C26.9955 35.2814 28.0603 36.1498 29.2527 36.0287L29.143 34.9491ZM37.7557 34.0741L29.143 34.9491L29.2527 36.0287L37.8654 35.1536L37.7557 34.0741ZM40.9221 37.2559L38.2136 34.2506L37.4075 34.9771L40.1161 37.9823L40.9221 37.2559ZM42.1004 33.8557L40.0513 37.3444L40.9869 37.8939L43.036 34.4053L42.1004 33.8557ZM50.8765 32.7411L42.5133 33.5907L42.623 34.6703L50.9862 33.8206L50.8765 32.7411ZM51.8464 31.5519C51.907 32.1481 51.4727 32.6805 50.8765 32.7411L50.9862 33.8206C52.1786 33.6994 53.047 32.6346 52.9259 31.4422L51.8464 31.5519ZM50.1461 14.8084L51.8464 31.5519L52.9259 31.4422L51.2256 14.6987L50.1461 14.8084ZM48.9569 13.8385C49.5531 13.778 50.0855 14.2122 50.1461 14.8084L51.2256 14.6987C51.1045 13.5063 50.0397 12.6379 48.8473 12.759L48.9569 13.8385ZM27.2234 16.0466L48.9569 13.8385L48.8473 12.759L27.1138 14.9671L27.2234 16.0466Z" fill="#513D5B"/>
<path d="M45.8753 22.0426C46.2616 25.8458 39.7454 30.0012 39.7454 30.0012C39.7454 30.0012 32.5269 27.2412 32.1407 23.438C31.7545 19.6349 37.3231 17.7631 39.008 22.7403C39.3833 17.5538 45.4891 18.2394 45.8753 22.0426Z" fill="white"/>
<path fill-rule="evenodd" clip-rule="evenodd" d="M27.1686 15.5069C26.2743 15.5977 25.6229 16.3964 25.7138 17.2907L27.4141 34.0341C27.5049 34.9284 28.3035 35.5798 29.1978 35.4889L37.8106 34.6139L40.5191 37.6191L42.5682 34.1305L50.9314 33.2808C51.8257 33.1899 52.477 32.3913 52.3862 31.497L50.6858 14.7535C50.595 13.8592 49.7964 13.2079 48.9021 13.2988L27.1686 15.5069Z" fill="#F2ACB9"/>
<path d="M25.7138 17.2907L25.174 17.3455L25.7138 17.2907ZM27.4141 34.0341L27.9539 33.9793L27.4141 34.0341ZM37.8106 34.6139L38.2136 34.2506L38.0294 34.0463L37.7557 34.0741L37.8106 34.6139ZM40.5191 37.6191L40.1161 37.9823L40.6118 38.5324L40.9869 37.8939L40.5191 37.6191ZM42.5682 34.1305L42.5133 33.5907L42.2397 33.6185L42.1004 33.8557L42.5682 34.1305ZM50.9314 33.2808L50.9862 33.8206L50.9314 33.2808ZM26.2535 17.2358C26.193 16.6396 26.6272 16.1072 27.2234 16.0466L27.1138 14.9671C25.9214 15.0883 25.0529 16.1531 25.174 17.3455L26.2535 17.2358ZM27.9539 33.9793L26.2535 17.2358L25.174 17.3455L26.8744 34.089L27.9539 33.9793ZM29.143 34.9491C28.5468 35.0097 28.0144 34.5755 27.9539 33.9793L26.8744 34.089C26.9955 35.2814 28.0603 36.1498 29.2527 36.0287L29.143 34.9491ZM37.7557 34.0741L29.143 34.9491L29.2527 36.0287L37.8654 35.1536L37.7557 34.0741ZM40.9221 37.2559L38.2136 34.2506L37.4075 34.9771L40.1161 37.9823L40.9221 37.2559ZM42.1004 33.8557L40.0513 37.3444L40.9869 37.8939L43.036 34.4053L42.1004 33.8557ZM50.8765 32.7411L42.5133 33.5907L42.623 34.6703L50.9862 33.8206L50.8765 32.7411ZM51.8464 31.5519C51.907 32.1481 51.4727 32.6805 50.8765 32.7411L50.9862 33.8206C52.1786 33.6994 53.047 32.6346 52.9259 31.4422L51.8464 31.5519ZM50.1461 14.8084L51.8464 31.5519L52.9259 31.4422L51.2256 14.6987L50.1461 14.8084ZM48.9569 13.8385C49.5531 13.778 50.0855 14.2122 50.1461 14.8084L51.2256 14.6987C51.1045 13.5063 50.0397 12.6379 48.8473 12.759L48.9569 13.8385ZM27.2234 16.0466L48.9569 13.8385L48.8473 12.759L27.1138 14.9671L27.2234 16.0466Z" fill="#513D5B"/>
<path d="M45.8753 22.0426C46.2616 25.8458 39.7454 30.0012 39.7454 30.0012C39.7454 30.0012 32.5269 27.2412 32.1407 23.438C31.7545 19.6349 37.3231 17.7631 39.008 22.7403C39.3833 17.5538 45.4891 18.2394 45.8753 22.0426Z" fill="white"/>
<path fill-rule="evenodd" clip-rule="evenodd" d="M48.101 18.4805C47.2067 18.5714 46.5553 19.37 46.6461 20.2643L48.3465 37.0078C48.4373 37.9021 49.2359 38.5534 50.1302 38.4625L58.743 37.5875L61.4517 40.5929L63.5008 37.1041L71.8637 36.2544C72.758 36.1636 73.4094 35.365 73.3186 34.4707L71.6182 17.7272C71.5274 16.8329 70.7288 16.1815 69.8345 16.2724L48.101 18.4805Z" fill="#F2ACB9"/>
<path d="M46.6461 20.2643L46.1064 20.3191L46.6461 20.2643ZM48.101 18.4805L48.1558 19.0203L48.101 18.4805ZM48.3465 37.0078L48.8863 36.9529L48.3465 37.0078ZM50.1302 38.4625L50.185 39.0023L50.1302 38.4625ZM58.743 37.5875L59.146 37.2243L58.9618 37.0199L58.6881 37.0477L58.743 37.5875ZM61.4517 40.5929L61.0486 40.9562L61.5444 41.5062L61.9195 40.8677L61.4517 40.5929ZM63.5008 37.1041L63.446 36.5643L63.1723 36.5921L63.033 36.8293L63.5008 37.1041ZM71.8637 36.2544L71.9185 36.7942L71.8637 36.2544ZM69.8345 16.2724L69.7797 15.7327L69.8345 16.2724ZM47.1859 20.2094C47.1253 19.6133 47.5596 19.0808 48.1558 19.0203L48.0461 17.9407C46.8537 18.0619 45.9853 19.1267 46.1064 20.3191L47.1859 20.2094ZM48.8863 36.9529L47.1859 20.2094L46.1064 20.3191L47.8067 37.0626L48.8863 36.9529ZM50.0754 37.9228C49.4792 37.9834 48.9468 37.5491 48.8863 36.9529L47.8067 37.0626C47.9278 38.255 48.9926 39.1234 50.185 39.0023L50.0754 37.9228ZM58.6881 37.0477L50.0754 37.9228L50.185 39.0023L58.7978 38.1273L58.6881 37.0477ZM61.8547 40.2297L59.146 37.2243L58.3399 37.9507L61.0486 40.9562L61.8547 40.2297ZM63.033 36.8293L60.9838 40.3182L61.9195 40.8677L63.9686 37.3789L63.033 36.8293ZM71.8089 35.7147L63.446 36.5643L63.5556 37.6439L71.9185 36.7942L71.8089 35.7147ZM72.7788 34.5255C72.8393 35.1217 72.4051 35.6541 71.8089 35.7147L71.9185 36.7942C73.1109 36.6731 73.9794 35.6082 73.8583 34.4158L72.7788 34.5255ZM71.0784 17.782L72.7788 34.5255L73.8583 34.4158L72.1579 17.6723L71.0784 17.782ZM69.8893 16.8122C70.4855 16.7516 71.0179 17.1858 71.0784 17.782L72.1579 17.6723C72.0368 16.4799 70.9721 15.6115 69.7797 15.7327L69.8893 16.8122ZM48.1558 19.0203L69.8893 16.8122L69.7797 15.7327L48.0461 17.9407L48.1558 19.0203Z" fill="#513D5B"/>
<path d="M66.808 25.0162C67.1942 28.8194 60.678 32.9749 60.678 32.9749C60.678 32.9749 53.4596 30.2148 53.0733 26.4117C52.6871 22.6085 58.2557 20.7368 59.9406 25.714C60.3159 20.5274 66.4217 21.2131 66.808 25.0162Z" fill="white"/>
<path fill-rule="evenodd" clip-rule="evenodd" d="M48.101 18.4805C47.2067 18.5714 46.5553 19.37 46.6461 20.2643L48.3465 37.0078C48.4373 37.9021 49.2359 38.5534 50.1302 38.4625L58.743 37.5875L61.4517 40.5929L63.5008 37.1041L71.8637 36.2544C72.758 36.1636 73.4094 35.365 73.3186 34.4707L71.6182 17.7272C71.5274 16.8329 70.7288 16.1815 69.8345 16.2724L48.101 18.4805Z" fill="#F2ACB9"/>
<path d="M46.6461 20.2643L46.1064 20.3191L46.6461 20.2643ZM48.101 18.4805L48.1558 19.0203L48.101 18.4805ZM48.3465 37.0078L48.8863 36.9529L48.3465 37.0078ZM50.1302 38.4625L50.185 39.0023L50.1302 38.4625ZM58.743 37.5875L59.146 37.2243L58.9618 37.0199L58.6881 37.0477L58.743 37.5875ZM61.4517 40.5929L61.0486 40.9562L61.5444 41.5062L61.9195 40.8677L61.4517 40.5929ZM63.5008 37.1041L63.446 36.5643L63.1723 36.5921L63.033 36.8293L63.5008 37.1041ZM71.8637 36.2544L71.9185 36.7942L71.8637 36.2544ZM69.8345 16.2724L69.7797 15.7327L69.8345 16.2724ZM47.1859 20.2094C47.1253 19.6133 47.5596 19.0808 48.1558 19.0203L48.0461 17.9407C46.8537 18.0619 45.9853 19.1267 46.1064 20.3191L47.1859 20.2094ZM48.8863 36.9529L47.1859 20.2094L46.1064 20.3191L47.8067 37.0626L48.8863 36.9529ZM50.0754 37.9228C49.4792 37.9834 48.9468 37.5491 48.8863 36.9529L47.8067 37.0626C47.9278 38.255 48.9926 39.1234 50.185 39.0023L50.0754 37.9228ZM58.6881 37.0477L50.0754 37.9228L50.185 39.0023L58.7978 38.1273L58.6881 37.0477ZM61.8547 40.2297L59.146 37.2243L58.3399 37.9507L61.0486 40.9562L61.8547 40.2297ZM63.033 36.8293L60.9838 40.3182L61.9195 40.8677L63.9686 37.3789L63.033 36.8293ZM71.8089 35.7147L63.446 36.5643L63.5556 37.6439L71.9185 36.7942L71.8089 35.7147ZM72.7788 34.5255C72.8393 35.1217 72.4051 35.6541 71.8089 35.7147L71.9185 36.7942C73.1109 36.6731 73.9794 35.6082 73.8583 34.4158L72.7788 34.5255ZM71.0784 17.782L72.7788 34.5255L73.8583 34.4158L72.1579 17.6723L71.0784 17.782ZM69.8893 16.8122C70.4855 16.7516 71.0179 17.1858 71.0784 17.782L72.1579 17.6723C72.0368 16.4799 70.9721 15.6115 69.7797 15.7327L69.8893 16.8122ZM48.1558 19.0203L69.8893 16.8122L69.7797 15.7327L48.0461 17.9407L48.1558 19.0203Z" fill="#513D5B"/>
<path d="M66.808 25.0162C67.1942 28.8194 60.678 32.9749 60.678 32.9749C60.678 32.9749 53.4596 30.2148 53.0733 26.4117C52.6871 22.6085 58.2557 20.7368 59.9406 25.714C60.3159 20.5274 66.4217 21.2131 66.808 25.0162Z" fill="white"/>
<path fill-rule="evenodd" clip-rule="evenodd" d="M72.007 15.5069C71.1127 15.5977 70.4613 16.3964 70.5521 17.2907L72.2525 34.0341C72.3433 34.9284 73.1419 35.5798 74.0362 35.4889L82.6491 34.6139L85.3576 37.6191L87.4067 34.1305L95.7697 33.2808C96.664 33.1899 97.3154 32.3913 97.2246 31.497L95.5242 14.7535C95.4334 13.8592 94.6348 13.2079 93.7405 13.2988L72.007 15.5069Z" fill="#F2ACB9"/>
<path d="M70.5521 17.2907L70.0124 17.3455L70.5521 17.2907ZM72.007 15.5069L71.9521 14.9671L72.007 15.5069ZM72.2525 34.0341L72.7923 33.9793L72.2525 34.0341ZM74.0362 35.4889L73.9814 34.9491L74.0362 35.4889ZM82.6491 34.6139L83.0521 34.2506L82.8679 34.0463L82.5942 34.0741L82.6491 34.6139ZM85.3576 37.6191L84.9546 37.9823L85.4504 38.5324L85.8254 37.8939L85.3576 37.6191ZM87.4067 34.1305L87.3519 33.5907L87.0782 33.6185L86.9389 33.8557L87.4067 34.1305ZM97.2246 31.497L96.6848 31.5519L97.2246 31.497ZM95.5242 14.7535L96.064 14.6987L95.5242 14.7535ZM93.7405 13.2988L93.7953 13.8385L93.7405 13.2988ZM71.0919 17.2358C71.0313 16.6396 71.4656 16.1072 72.0618 16.0466L71.9521 14.9671C70.7598 15.0883 69.8913 16.1531 70.0124 17.3455L71.0919 17.2358ZM72.7923 33.9793L71.0919 17.2358L70.0124 17.3455L71.7128 34.089L72.7923 33.9793ZM73.9814 34.9491C73.3852 35.0097 72.8528 34.5755 72.7923 33.9793L71.7128 34.089C71.8338 35.2814 72.8986 36.1498 74.091 36.0287L73.9814 34.9491ZM82.5942 34.0741L73.9814 34.9491L74.091 36.0287L82.7039 35.1536L82.5942 34.0741ZM85.7606 37.2559L83.0521 34.2506L82.246 34.9771L84.9546 37.9823L85.7606 37.2559ZM86.9389 33.8557L84.8898 37.3444L85.8254 37.8939L87.8745 34.4052L86.9389 33.8557ZM95.7149 32.7411L87.3519 33.5907L87.4615 34.6702L95.8246 33.8206L95.7149 32.7411ZM96.6848 31.5519C96.7454 32.1481 96.3111 32.6805 95.7149 32.7411L95.8246 33.8206C97.017 33.6994 97.8854 32.6346 97.7643 31.4422L96.6848 31.5519ZM94.9844 14.8084L96.6848 31.5519L97.7643 31.4422L96.064 14.6987L94.9844 14.8084ZM93.7953 13.8385C94.3915 13.778 94.9239 14.2122 94.9844 14.8084L96.064 14.6987C95.9429 13.5063 94.8781 12.6379 93.6857 12.759L93.7953 13.8385ZM72.0618 16.0466L93.7953 13.8385L93.6857 12.759L71.9521 14.9671L72.0618 16.0466Z" fill="#513D5B"/>
<path d="M90.714 22.0426C91.1002 25.8458 84.584 30.0012 84.584 30.0012C84.584 30.0012 77.3656 27.2412 76.9793 23.438C76.5931 19.6349 82.1617 17.7631 83.8467 22.7403C84.2219 17.5538 90.3277 18.2394 90.714 22.0426Z" fill="white"/>
<path fill-rule="evenodd" clip-rule="evenodd" d="M72.007 15.5069C71.1127 15.5977 70.4613 16.3964 70.5521 17.2907L72.2525 34.0341C72.3433 34.9284 73.1419 35.5798 74.0362 35.4889L82.6491 34.6139L85.3576 37.6191L87.4067 34.1305L95.7697 33.2808C96.664 33.1899 97.3154 32.3913 97.2246 31.497L95.5242 14.7535C95.4334 13.8592 94.6348 13.2079 93.7405 13.2988L72.007 15.5069Z" fill="#F2ACB9"/>
<path d="M70.5521 17.2907L70.0124 17.3455L70.5521 17.2907ZM72.007 15.5069L71.9521 14.9671L72.007 15.5069ZM72.2525 34.0341L72.7923 33.9793L72.2525 34.0341ZM74.0362 35.4889L73.9814 34.9491L74.0362 35.4889ZM82.6491 34.6139L83.0521 34.2506L82.8679 34.0463L82.5942 34.0741L82.6491 34.6139ZM85.3576 37.6191L84.9546 37.9823L85.4504 38.5324L85.8254 37.8939L85.3576 37.6191ZM87.4067 34.1305L87.3519 33.5907L87.0782 33.6185L86.9389 33.8557L87.4067 34.1305ZM97.2246 31.497L96.6848 31.5519L97.2246 31.497ZM95.5242 14.7535L96.064 14.6987L95.5242 14.7535ZM93.7405 13.2988L93.7953 13.8385L93.7405 13.2988ZM71.0919 17.2358C71.0313 16.6396 71.4656 16.1072 72.0618 16.0466L71.9521 14.9671C70.7598 15.0883 69.8913 16.1531 70.0124 17.3455L71.0919 17.2358ZM72.7923 33.9793L71.0919 17.2358L70.0124 17.3455L71.7128 34.089L72.7923 33.9793ZM73.9814 34.9491C73.3852 35.0097 72.8528 34.5755 72.7923 33.9793L71.7128 34.089C71.8338 35.2814 72.8986 36.1498 74.091 36.0287L73.9814 34.9491ZM82.5942 34.0741L73.9814 34.9491L74.091 36.0287L82.7039 35.1536L82.5942 34.0741ZM85.7606 37.2559L83.0521 34.2506L82.246 34.9771L84.9546 37.9823L85.7606 37.2559ZM86.9389 33.8557L84.8898 37.3444L85.8254 37.8939L87.8745 34.4052L86.9389 33.8557ZM95.7149 32.7411L87.3519 33.5907L87.4615 34.6702L95.8246 33.8206L95.7149 32.7411ZM96.6848 31.5519C96.7454 32.1481 96.3111 32.6805 95.7149 32.7411L95.8246 33.8206C97.017 33.6994 97.8854 32.6346 97.7643 31.4422L96.6848 31.5519ZM94.9844 14.8084L96.6848 31.5519L97.7643 31.4422L96.064 14.6987L94.9844 14.8084ZM93.7953 13.8385C94.3915 13.778 94.9239 14.2122 94.9844 14.8084L96.064 14.6987C95.9429 13.5063 94.8781 12.6379 93.6857 12.759L93.7953 13.8385ZM72.0618 16.0466L93.7953 13.8385L93.6857 12.759L71.9521 14.9671L72.0618 16.0466Z" fill="#513D5B"/>
<path d="M90.714 22.0426C91.1002 25.8458 84.584 30.0012 84.584 30.0012C84.584 30.0012 77.3656 27.2412 76.9793 23.438C76.5931 19.6349 82.1617 17.7631 83.8467 22.7403C84.2219 17.5538 90.3277 18.2394 90.714 22.0426Z" fill="white"/>
<path fill-rule="evenodd" clip-rule="evenodd" d="M44.4106 32.2727C43.5183 32.3815 42.8831 33.1931 42.9918 34.0854L45.0278 50.7914C45.1366 51.6836 45.9481 52.3188 46.8404 52.21L55.4337 51.1623L58.2022 54.1127L60.181 50.5834L68.5252 49.5661C69.4175 49.4573 70.0527 48.6457 69.9439 47.7534L67.9079 31.0475C67.7992 30.1552 66.9877 29.52 66.0954 29.6288L44.4106 32.2727Z" fill="#F2ACB9"/>
<path d="M42.9918 34.0854L42.4533 34.151L42.9918 34.0854ZM44.4106 32.2727L44.4762 32.8113L44.4106 32.2727ZM45.0278 50.7914L45.5664 50.7257L45.0278 50.7914ZM55.4337 51.1623L55.8294 50.791L55.6412 50.5904L55.3681 50.6237L55.4337 51.1623ZM58.2022 54.1127L57.8066 54.484L58.3133 55.024L58.6754 54.378L58.2022 54.1127ZM60.181 50.5834L60.1154 50.0449L59.8423 50.0782L59.7078 50.3181L60.181 50.5834ZM66.0954 29.6288L66.0298 29.0903L66.0954 29.6288ZM43.5304 34.0197C43.4579 33.4248 43.8813 32.8838 44.4762 32.8113L44.3449 31.7342C43.1552 31.8792 42.3083 32.9613 42.4533 34.151L43.5304 34.0197ZM45.5664 50.7257L43.5304 34.0197L42.4533 34.151L44.4893 50.857L45.5664 50.7257ZM46.7747 51.6715C46.1799 51.744 45.6389 51.3206 45.5664 50.7257L44.4893 50.857C44.6343 52.0467 45.7163 52.8936 46.906 52.7486L46.7747 51.6715ZM55.3681 50.6237L46.7747 51.6715L46.906 52.7486L55.4994 51.7008L55.3681 50.6237ZM58.5979 53.7415L55.8294 50.791L55.0381 51.5335L57.8066 54.484L58.5979 53.7415ZM59.7078 50.3181L57.729 53.8474L58.6754 54.378L60.6542 50.8488L59.7078 50.3181ZM68.4596 49.0275L60.1154 50.0449L60.2466 51.122L68.5908 50.1046L68.4596 49.0275ZM69.4054 47.8191C69.4779 48.414 69.0544 48.955 68.4596 49.0275L68.5908 50.1046C69.7805 49.9596 70.6275 48.8775 70.4825 47.6878L69.4054 47.8191ZM67.3694 31.1131L69.4054 47.8191L70.4825 47.6878L68.4465 30.9818L67.3694 31.1131ZM66.161 30.1673C66.7559 30.0948 67.2969 30.5183 67.3694 31.1131L68.4465 30.9818C68.3015 29.7921 67.2195 28.9452 66.0298 29.0903L66.161 30.1673ZM44.4762 32.8113L66.161 30.1673L66.0298 29.0903L44.3449 31.7342L44.4762 32.8113Z" fill="#513D5B"/>
<path d="M63.2448 38.4315C63.7073 42.2262 57.2758 46.5116 57.2758 46.5116C57.2758 46.5116 50.0034 43.897 49.541 40.1024C49.0785 36.3077 54.6084 34.3246 56.3929 39.267C56.664 34.074 62.7824 34.6369 63.2448 38.4315Z" fill="white"/>
<path fill-rule="evenodd" clip-rule="evenodd" d="M44.4106 32.2727C43.5183 32.3815 42.8831 33.1931 42.9918 34.0854L45.0278 50.7914C45.1366 51.6836 45.9481 52.3188 46.8404 52.21L55.4337 51.1623L58.2022 54.1127L60.181 50.5834L68.5252 49.5661C69.4175 49.4573 70.0527 48.6457 69.9439 47.7534L67.9079 31.0475C67.7992 30.1552 66.9877 29.52 66.0954 29.6288L44.4106 32.2727Z" fill="#F2ACB9"/>
<path d="M42.9918 34.0854L42.4533 34.151L42.9918 34.0854ZM44.4106 32.2727L44.4762 32.8113L44.4106 32.2727ZM45.0278 50.7914L45.5664 50.7257L45.0278 50.7914ZM55.4337 51.1623L55.8294 50.791L55.6412 50.5904L55.3681 50.6237L55.4337 51.1623ZM58.2022 54.1127L57.8066 54.484L58.3133 55.024L58.6754 54.378L58.2022 54.1127ZM60.181 50.5834L60.1154 50.0449L59.8423 50.0782L59.7078 50.3181L60.181 50.5834ZM66.0954 29.6288L66.0298 29.0903L66.0954 29.6288ZM43.5304 34.0197C43.4579 33.4248 43.8813 32.8838 44.4762 32.8113L44.3449 31.7342C43.1552 31.8792 42.3083 32.9613 42.4533 34.151L43.5304 34.0197ZM45.5664 50.7257L43.5304 34.0197L42.4533 34.151L44.4893 50.857L45.5664 50.7257ZM46.7747 51.6715C46.1799 51.744 45.6389 51.3206 45.5664 50.7257L44.4893 50.857C44.6343 52.0467 45.7163 52.8936 46.906 52.7486L46.7747 51.6715ZM55.3681 50.6237L46.7747 51.6715L46.906 52.7486L55.4994 51.7008L55.3681 50.6237ZM58.5979 53.7415L55.8294 50.791L55.0381 51.5335L57.8066 54.484L58.5979 53.7415ZM59.7078 50.3181L57.729 53.8474L58.6754 54.378L60.6542 50.8488L59.7078 50.3181ZM68.4596 49.0275L60.1154 50.0449L60.2466 51.122L68.5908 50.1046L68.4596 49.0275ZM69.4054 47.8191C69.4779 48.414 69.0544 48.955 68.4596 49.0275L68.5908 50.1046C69.7805 49.9596 70.6275 48.8775 70.4825 47.6878L69.4054 47.8191ZM67.3694 31.1131L69.4054 47.8191L70.4825 47.6878L68.4465 30.9818L67.3694 31.1131ZM66.161 30.1673C66.7559 30.0948 67.2969 30.5183 67.3694 31.1131L68.4465 30.9818C68.3015 29.7921 67.2195 28.9452 66.0298 29.0903L66.161 30.1673ZM44.4762 32.8113L66.161 30.1673L66.0298 29.0903L44.3449 31.7342L44.4762 32.8113Z" fill="#513D5B"/>
<path d="M63.2448 38.4315C63.7073 42.2262 57.2758 46.5116 57.2758 46.5116C57.2758 46.5116 50.0034 43.897 49.541 40.1024C49.0785 36.3077 54.6084 34.3246 56.3929 39.267C56.664 34.074 62.7824 34.6369 63.2448 38.4315Z" fill="white"/>
<path fill-rule="evenodd" clip-rule="evenodd" d="M68.6217 24.6652C67.7321 24.5362 66.9064 25.1528 66.7775 26.0424L64.3631 42.6979C64.2341 43.5875 64.8507 44.4132 65.7403 44.5422L74.3076 45.7847L76.2059 49.3581L79.0407 46.4711L87.3596 47.6776C88.2492 47.8066 89.0749 47.19 89.2039 46.3004L91.6183 29.6449C91.7472 28.7553 91.1306 27.9296 90.241 27.8006L68.6217 24.6652Z" fill="#F2ACB9"/>
<path d="M66.7775 26.0424L66.2406 25.9645L66.7775 26.0424ZM68.6217 24.6652L68.5439 25.2022L68.6217 24.6652ZM64.3631 42.6979L64.9 42.7757L64.3631 42.6979ZM65.7403 44.5422L65.8182 44.0053L65.7403 44.5422ZM74.3076 45.7847L74.7868 45.5302L74.6577 45.2873L74.3855 45.2478L74.3076 45.7847ZM76.2059 49.3581L75.7268 49.6126L76.0742 50.2666L76.593 49.7382L76.2059 49.3581ZM79.0407 46.4711L79.1185 45.9342L78.8463 45.8947L78.6536 46.091L79.0407 46.4711ZM87.3596 47.6776L87.4375 47.1407L87.3596 47.6776ZM89.2039 46.3004L88.667 46.2225L89.2039 46.3004ZM91.6183 29.6449L92.1552 29.7228L91.6183 29.6449ZM90.241 27.8006L90.3189 27.2637L90.241 27.8006ZM67.3144 26.1203C67.4004 25.5272 67.9508 25.1162 68.5439 25.2022L68.6996 24.1283C67.5134 23.9563 66.4125 24.7784 66.2406 25.9645L67.3144 26.1203ZM64.9 42.7757L67.3144 26.1203L66.2406 25.9645L63.8262 42.62L64.9 42.7757ZM65.8182 44.0053C65.2251 43.9193 64.814 43.3688 64.9 42.7757L63.8262 42.62C63.6542 43.8061 64.4764 44.9071 65.6625 45.0792L65.8182 44.0053ZM74.3855 45.2478L65.8182 44.0053L65.6625 45.0792L74.2298 46.3216L74.3855 45.2478ZM76.685 49.1036L74.7868 45.5302L73.8285 46.0392L75.7268 49.6126L76.685 49.1036ZM78.6536 46.091L75.8188 48.978L76.593 49.7382L79.4278 46.8513L78.6536 46.091ZM87.4375 47.1407L79.1185 45.9342L78.9629 47.008L87.2818 48.2145L87.4375 47.1407ZM88.667 46.2225C88.581 46.8156 88.0305 47.2267 87.4375 47.1407L87.2818 48.2145C88.4679 48.3865 89.5689 47.5644 89.7408 46.3783L88.667 46.2225ZM91.0814 29.5671L88.667 46.2225L89.7408 46.3783L92.1552 29.7228L91.0814 29.5671ZM90.1632 28.3375C90.7563 28.4235 91.1673 28.974 91.0814 29.5671L92.1552 29.7228C92.3271 28.5367 91.505 27.4357 90.3189 27.2637L90.1632 28.3375ZM68.5439 25.2022L90.1632 28.3375L90.3189 27.2637L68.6996 24.1283L68.5439 25.2022Z" fill="#513D5B"/>
<path d="M85.1829 35.5478C84.6344 39.331 77.3046 41.7798 77.3046 41.7798C77.3046 41.7798 70.972 37.3496 71.5204 33.5664C72.0688 29.7832 77.9252 29.3197 78.3516 34.5571C79.9745 29.6169 85.7313 31.7646 85.1829 35.5478Z" fill="white"/>
<path fill-rule="evenodd" clip-rule="evenodd" d="M68.6217 24.6652C67.7321 24.5362 66.9064 25.1528 66.7775 26.0424L64.3631 42.6979C64.2341 43.5875 64.8507 44.4132 65.7403 44.5422L74.3076 45.7847L76.2059 49.3581L79.0407 46.4711L87.3596 47.6776C88.2492 47.8066 89.0749 47.19 89.2039 46.3004L91.6183 29.6449C91.7472 28.7553 91.1306 27.9296 90.241 27.8006L68.6217 24.6652Z" fill="#F2ACB9"/>
<path d="M66.7775 26.0424L66.2406 25.9645L66.7775 26.0424ZM68.6217 24.6652L68.5439 25.2022L68.6217 24.6652ZM64.3631 42.6979L64.9 42.7757L64.3631 42.6979ZM65.7403 44.5422L65.8182 44.0053L65.7403 44.5422ZM74.3076 45.7847L74.7868 45.5302L74.6577 45.2873L74.3855 45.2478L74.3076 45.7847ZM76.2059 49.3581L75.7268 49.6126L76.0742 50.2666L76.593 49.7382L76.2059 49.3581ZM79.0407 46.4711L79.1185 45.9342L78.8463 45.8947L78.6536 46.091L79.0407 46.4711ZM87.3596 47.6776L87.4375 47.1407L87.3596 47.6776ZM89.2039 46.3004L88.667 46.2225L89.2039 46.3004ZM91.6183 29.6449L92.1552 29.7228L91.6183 29.6449ZM90.241 27.8006L90.3189 27.2637L90.241 27.8006ZM67.3144 26.1203C67.4004 25.5272 67.9508 25.1162 68.5439 25.2022L68.6996 24.1283C67.5134 23.9563 66.4125 24.7784 66.2406 25.9645L67.3144 26.1203ZM64.9 42.7757L67.3144 26.1203L66.2406 25.9645L63.8262 42.62L64.9 42.7757ZM65.8182 44.0053C65.2251 43.9193 64.814 43.3688 64.9 42.7757L63.8262 42.62C63.6542 43.8061 64.4764 44.9071 65.6625 45.0792L65.8182 44.0053ZM74.3855 45.2478L65.8182 44.0053L65.6625 45.0792L74.2298 46.3216L74.3855 45.2478ZM76.685 49.1036L74.7868 45.5302L73.8285 46.0392L75.7268 49.6126L76.685 49.1036ZM78.6536 46.091L75.8188 48.978L76.593 49.7382L79.4278 46.8513L78.6536 46.091ZM87.4375 47.1407L79.1185 45.9342L78.9629 47.008L87.2818 48.2145L87.4375 47.1407ZM88.667 46.2225C88.581 46.8156 88.0305 47.2267 87.4375 47.1407L87.2818 48.2145C88.4679 48.3865 89.5689 47.5644 89.7408 46.3783L88.667 46.2225ZM91.0814 29.5671L88.667 46.2225L89.7408 46.3783L92.1552 29.7228L91.0814 29.5671ZM90.1632 28.3375C90.7563 28.4235 91.1673 28.974 91.0814 29.5671L92.1552 29.7228C92.3271 28.5367 91.505 27.4357 90.3189 27.2637L90.1632 28.3375ZM68.5439 25.2022L90.1632 28.3375L90.3189 27.2637L68.6996 24.1283L68.5439 25.2022Z" fill="#513D5B"/>
<path d="M85.1829 35.5478C84.6344 39.331 77.3046 41.7798 77.3046 41.7798C77.3046 41.7798 70.972 37.3496 71.5204 33.5664C72.0688 29.7832 77.9252 29.3197 78.3516 34.5571C79.9745 29.6169 85.7313 31.7646 85.1829 35.5478Z" fill="white"/>
<path fill-rule="evenodd" clip-rule="evenodd" d="M80.8166 33.9521C79.9177 33.9521 79.189 34.6809 79.189 35.5797V52.4094C79.189 53.3083 79.9177 54.037 80.8166 54.037H89.4736L91.8646 57.3007L94.2557 54.037H102.662C103.561 54.037 104.29 53.3083 104.29 52.4094V35.5797C104.29 34.6808 103.561 33.9521 102.662 33.9521H80.8166Z" fill="#F2ACB9"/>
<path d="M89.4736 54.037L89.9112 53.7164L89.7486 53.4945H89.4736V54.037ZM91.8646 57.3007L91.427 57.6213L91.8646 58.2187L92.3023 57.6213L91.8646 57.3007ZM94.2557 54.037V53.4945H93.9807L93.8181 53.7164L94.2557 54.037ZM79.7315 35.5797C79.7315 34.9805 80.2173 34.4947 80.8166 34.4947V33.4096C79.618 33.4096 78.6464 34.3812 78.6464 35.5797H79.7315ZM79.7315 52.4094V35.5797H78.6464V52.4094H79.7315ZM80.8166 53.4945C80.2173 53.4945 79.7315 53.0087 79.7315 52.4094H78.6464C78.6464 53.6079 79.618 54.5795 80.8166 54.5795V53.4945ZM89.4736 53.4945H80.8166V54.5795H89.4736V53.4945ZM92.3023 56.9801L89.9112 53.7164L89.0359 54.3576L91.427 57.6213L92.3023 56.9801ZM93.8181 53.7164L91.427 56.9801L92.3023 57.6213L94.6934 54.3576L93.8181 53.7164ZM102.662 53.4945H94.2557V54.5795H102.662V53.4945ZM103.747 52.4094C103.747 53.0087 103.261 53.4945 102.662 53.4945V54.5795C103.86 54.5795 104.832 53.6079 104.832 52.4094H103.747ZM103.747 35.5797V52.4094H104.832V35.5797H103.747ZM102.662 34.4947C103.261 34.4947 103.747 34.9805 103.747 35.5797H104.832C104.832 34.3812 103.86 33.4096 102.662 33.4096V34.4947ZM80.8166 34.4947H102.662V33.4096H80.8166V34.4947Z" fill="#513D5B"/>
<path d="M98.7675 42.3454C98.7675 46.1682 91.8648 49.6437 91.8648 49.6437C91.8648 49.6437 84.9622 46.1682 84.9622 42.3454C84.9622 38.5227 90.6914 37.2234 91.8648 42.3454C92.7622 37.2234 98.7675 38.5227 98.7675 42.3454Z" fill="white"/>
<path fill-rule="evenodd" clip-rule="evenodd" d="M80.8166 33.9521C79.9177 33.9521 79.189 34.6809 79.189 35.5797V52.4094C79.189 53.3083 79.9177 54.037 80.8166 54.037H89.4736L91.8646 57.3007L94.2557 54.037H102.662C103.561 54.037 104.29 53.3083 104.29 52.4094V35.5797C104.29 34.6808 103.561 33.9521 102.662 33.9521H80.8166Z" fill="#F2ACB9"/>
<path d="M89.4736 54.037L89.9112 53.7164L89.7486 53.4945H89.4736V54.037ZM91.8646 57.3007L91.427 57.6213L91.8646 58.2187L92.3023 57.6213L91.8646 57.3007ZM94.2557 54.037V53.4945H93.9807L93.8181 53.7164L94.2557 54.037ZM79.7315 35.5797C79.7315 34.9805 80.2173 34.4947 80.8166 34.4947V33.4096C79.618 33.4096 78.6464 34.3812 78.6464 35.5797H79.7315ZM79.7315 52.4094V35.5797H78.6464V52.4094H79.7315ZM80.8166 53.4945C80.2173 53.4945 79.7315 53.0087 79.7315 52.4094H78.6464C78.6464 53.6079 79.618 54.5795 80.8166 54.5795V53.4945ZM89.4736 53.4945H80.8166V54.5795H89.4736V53.4945ZM92.3023 56.9801L89.9112 53.7164L89.0359 54.3576L91.427 57.6213L92.3023 56.9801ZM93.8181 53.7164L91.427 56.9801L92.3023 57.6213L94.6934 54.3576L93.8181 53.7164ZM102.662 53.4945H94.2557V54.5795H102.662V53.4945ZM103.747 52.4094C103.747 53.0087 103.261 53.4945 102.662 53.4945V54.5795C103.86 54.5795 104.832 53.6079 104.832 52.4094H103.747ZM103.747 35.5797V52.4094H104.832V35.5797H103.747ZM102.662 34.4947C103.261 34.4947 103.747 34.9805 103.747 35.5797H104.832C104.832 34.3812 103.86 33.4096 102.662 33.4096V34.4947ZM80.8166 34.4947H102.662V33.4096H80.8166V34.4947Z" fill="#513D5B"/>
<path d="M98.7675 42.3454C98.7675 46.1682 91.8648 49.6437 91.8648 49.6437C91.8648 49.6437 84.9622 46.1682 84.9622 42.3454C84.9622 38.5227 90.6914 37.2234 91.8648 42.3454C92.7622 37.2234 98.7675 38.5227 98.7675 42.3454Z" fill="white"/>
<path d="M20.5706 45.7617H62.4048V81.4034L20.5706 79.76V45.7617Z" fill="#F2B6A0" stroke="#513D5B" stroke-width="1.08507"/>
<path d="M20.4369 45.7153H62.4048L42.6799 60.7195H20.4369H2L20.4369 45.7153Z" fill="#F2B6A0" stroke="#513D5B" stroke-width="1.08507"/>
<path d="M62.4048 45.7617H104.239V79.76L62.4048 81.4034V45.7617Z" fill="#F2B6A0" stroke="#513D5B" stroke-width="1.08507"/>
<path d="M104.373 45.7148H62.4048L82.1297 60.719H104.373H125.698L104.373 45.7148Z" fill="#F2B6A0" stroke="#513D5B" stroke-width="1.08507"/>
<path fill-rule="evenodd" clip-rule="evenodd" d="M51.5585 1C50.6596 1 49.9309 1.7287 49.9309 2.6276V19.4573C49.9309 20.3562 50.6596 21.0849 51.5585 21.0849H60.2157L62.6067 24.3485L64.9977 21.0849H73.4039C74.3028 21.0849 75.0315 20.3562 75.0315 19.4573V2.6276C75.0315 1.7287 74.3028 1 73.4039 1H51.5585Z" fill="#F2ACB9"/>
<path d="M60.2157 21.0849L60.6533 20.7642L60.4907 20.5423H60.2157V21.0849ZM62.6067 24.3485L62.169 24.6691L62.6067 25.2665L63.0443 24.6691L62.6067 24.3485ZM64.9977 21.0849V20.5423H64.7226L64.56 20.7642L64.9977 21.0849ZM50.4734 2.6276C50.4734 2.02833 50.9592 1.54253 51.5585 1.54253V0.457467C50.36 0.457467 49.3884 1.42907 49.3884 2.6276H50.4734ZM50.4734 19.4573V2.6276H49.3884V19.4573H50.4734ZM51.5585 20.5423C50.9592 20.5423 50.4734 20.0565 50.4734 19.4573H49.3884C49.3884 20.6558 50.36 21.6274 51.5585 21.6274V20.5423ZM60.2157 20.5423H51.5585V21.6274H60.2157V20.5423ZM63.0443 24.0278L60.6533 20.7642L59.778 21.4055L62.169 24.6691L63.0443 24.0278ZM64.56 20.7642L62.169 24.0278L63.0443 24.6691L65.4353 21.4055L64.56 20.7642ZM73.4039 20.5423H64.9977V21.6274H73.4039V20.5423ZM74.4889 19.4573C74.4889 20.0565 74.0031 20.5423 73.4039 20.5423V21.6274C74.6024 21.6274 75.574 20.6558 75.574 19.4573H74.4889ZM74.4889 2.6276V19.4573H75.574V2.6276H74.4889ZM73.4039 1.54253C74.0031 1.54253 74.4889 2.02833 74.4889 2.6276H75.574C75.574 1.42907 74.6024 0.457467 73.4039 0.457467V1.54253ZM51.5585 1.54253H73.4039V0.457467H51.5585V1.54253Z" fill="#513D5B"/>
<path d="M69.5094 9.39328C69.5094 13.216 62.6068 16.6916 62.6068 16.6916C62.6068 16.6916 55.7041 13.216 55.7041 9.39328C55.7041 5.57054 61.4333 4.27125 62.6068 9.3933C63.5041 4.27125 69.5094 5.57054 69.5094 9.39328Z" fill="white"/>
<path fill-rule="evenodd" clip-rule="evenodd" d="M51.5585 1C50.6596 1 49.9309 1.7287 49.9309 2.6276V19.4573C49.9309 20.3562 50.6596 21.0849 51.5585 21.0849H60.2157L62.6067 24.3485L64.9977 21.0849H73.4039C74.3028 21.0849 75.0315 20.3562 75.0315 19.4573V2.6276C75.0315 1.7287 74.3028 1 73.4039 1H51.5585Z" fill="#F2ACB9"/>
<path d="M60.2157 21.0849L60.6533 20.7642L60.4907 20.5423H60.2157V21.0849ZM62.6067 24.3485L62.169 24.6691L62.6067 25.2665L63.0443 24.6691L62.6067 24.3485ZM64.9977 21.0849V20.5423H64.7226L64.56 20.7642L64.9977 21.0849ZM50.4734 2.6276C50.4734 2.02833 50.9592 1.54253 51.5585 1.54253V0.457467C50.36 0.457467 49.3884 1.42907 49.3884 2.6276H50.4734ZM50.4734 19.4573V2.6276H49.3884V19.4573H50.4734ZM51.5585 20.5423C50.9592 20.5423 50.4734 20.0565 50.4734 19.4573H49.3884C49.3884 20.6558 50.36 21.6274 51.5585 21.6274V20.5423ZM60.2157 20.5423H51.5585V21.6274H60.2157V20.5423ZM63.0443 24.0278L60.6533 20.7642L59.778 21.4055L62.169 24.6691L63.0443 24.0278ZM64.56 20.7642L62.169 24.0278L63.0443 24.6691L65.4353 21.4055L64.56 20.7642ZM73.4039 20.5423H64.9977V21.6274H73.4039V20.5423ZM74.4889 19.4573C74.4889 20.0565 74.0031 20.5423 73.4039 20.5423V21.6274C74.6024 21.6274 75.574 20.6558 75.574 19.4573H74.4889ZM74.4889 2.6276V19.4573H75.574V2.6276H74.4889ZM73.4039 1.54253C74.0031 1.54253 74.4889 2.02833 74.4889 2.6276H75.574C75.574 1.42907 74.6024 0.457467 73.4039 0.457467V1.54253ZM51.5585 1.54253H73.4039V0.457467H51.5585V1.54253Z" fill="#513D5B"/>
<path d="M69.5094 9.39328C69.5094 13.216 62.6068 16.6916 62.6068 16.6916C62.6068 16.6916 55.7041 13.216 55.7041 9.39328C55.7041 5.57054 61.4333 4.27125 62.6068 9.3933C63.5041 4.27125 69.5094 5.57054 69.5094 9.39328Z" fill="white"/>
</svg>
