<svg width="105" height="104" viewBox="0 0 105 104" fill="none" xmlns="http://www.w3.org/2000/svg">
<mask id="path-1-inside-1" fill="white">
<path fill-rule="evenodd" clip-rule="evenodd" d="M53.5554 102.841C53.1131 103.283 52.4426 103.68 51.8419 103.855C51.7354 103.886 51.6228 103.902 51.5064 103.902H1.60002C0.937283 103.902 0.400024 103.365 0.400024 102.702V52.7961C0.400024 52.6792 0.416744 52.5662 0.447922 52.4594C0.623044 51.8593 1.02021 51.1896 1.46225 50.7476L51.8584 0.351471C52.327 -0.117158 53.0868 -0.117157 53.5554 0.351472L103.952 50.7476C104.42 51.2162 104.42 51.976 103.952 52.4447L53.5554 102.841Z"/>
</mask>
<path d="M51.8584 0.351471L56.101 4.59411L56.101 4.59411L51.8584 0.351471ZM53.5554 0.351472L57.7981 -3.89117L57.7981 -3.89118L53.5554 0.351472ZM103.952 50.7476L99.7089 54.9902L99.709 54.9903L103.952 50.7476ZM103.952 52.4447L108.194 56.6873L108.194 56.6873L103.952 52.4447ZM51.8419 103.855L50.1672 98.0934L51.8419 103.855ZM51.5064 109.902C52.1953 109.902 52.8716 109.804 53.5167 109.616L50.1672 98.0934C50.5993 97.9678 51.0504 97.9025 51.5064 97.9025V109.902ZM1.60002 109.902H51.5064V97.9025H1.60002V109.902ZM-5.59998 102.702C-5.59998 106.679 -2.37645 109.902 1.60002 109.902V97.9025C4.25102 97.9025 6.40002 100.052 6.40002 102.702H-5.59998ZM-5.59998 52.7961V102.702H6.40002V52.7961H-5.59998ZM-5.31185 50.7786C-5.50073 51.4258 -5.59998 52.1046 -5.59998 52.7961H6.40002C6.40002 53.2539 6.33422 53.7066 6.20769 54.1402L-5.31185 50.7786ZM5.70489 54.9902L56.101 4.59411L47.6157 -3.89117L-2.78039 46.505L5.70489 54.9902ZM56.101 4.59411C54.2265 6.46865 51.1873 6.46861 49.3128 4.59413L57.7981 -3.89118C54.9863 -6.70292 50.4275 -6.70296 47.6157 -3.89116L56.101 4.59411ZM49.3128 4.59411L99.7089 54.9902L108.194 46.505L57.7981 -3.89117L49.3128 4.59411ZM99.709 54.9903C97.8343 53.1157 97.8345 50.0765 99.7089 48.202L108.194 56.6873C111.006 53.8756 111.006 49.3168 108.194 46.5049L99.709 54.9903ZM99.7089 48.202L49.3128 98.5981L57.7981 107.083L108.194 56.6873L99.7089 48.202ZM6.20769 54.1402C6.13205 54.3994 6.05233 54.543 6.01645 54.6035C5.98046 54.6642 5.89367 54.8015 5.7049 54.9902L-2.7804 46.505C-3.9331 47.6577 -4.8534 49.2076 -5.31185 50.7786L6.20769 54.1402ZM53.5167 109.616C55.0907 109.159 56.6436 108.238 57.7981 107.083L49.3128 98.5981C49.5023 98.4086 49.6403 98.3214 49.7015 98.2852C49.7624 98.2491 49.9068 98.1691 50.1672 98.0934L53.5167 109.616Z" fill="#F2ACB9" mask="url(#path-1-inside-1)"/>
</svg>
